<?xml version="1.0" encoding="UTF-8" standalone="no"?>
<!-- Created with Inkscape (http://www.inkscape.org/) -->

<svg
   version="1.1"
   id="svg439"
   xml:space="preserve"
   width="75"
   height="100"
   viewBox="0 0 1945.9733 1591.5867"
   sodipodi:docname="name_with_logo_blue2.svg"
   inkscape:version="1.1 (c68e22c387, 2021-05-23)"
   xmlns:inkscape="http://www.inkscape.org/namespaces/inkscape"
   xmlns:sodipodi="http://sodipodi.sourceforge.net/DTD/sodipodi-0.dtd"
   xmlns="http://www.w3.org/2000/svg"
   xmlns:svg="http://www.w3.org/2000/svg"><defs
     id="defs443"><clipPath
       clipPathUnits="userSpaceOnUse"
       id="clipPath453"><path
         d="M 0,1193.693 H 1459.476 V 0 H 0 Z"
         id="path451" /></clipPath></defs><sodipodi:namedview
     id="namedview441"
     pagecolor="#ffffff"
     bordercolor="#999999"
     borderopacity="1"
     inkscape:pageshadow="0"
     inkscape:pageopacity="0"
     inkscape:pagecheckerboard="0"
     showgrid="false"
     inkscape:zoom="0.52274879"
     inkscape:cx="651.3645"
     inkscape:cy="643.71264"
     inkscape:window-width="1920"
     inkscape:window-height="1017"
     inkscape:window-x="-8"
     inkscape:window-y="-8"
     inkscape:window-maximized="1"
     inkscape:current-layer="g445" /><g
     id="g445"
     inkscape:groupmode="layer"
     inkscape:label="Scott Coffman Final"
     transform="matrix(1.3333333,0,0,-1.3333333,0,1591.5867)"><g
       id="g447"
       transform="matrix(1.8705119,0,0,5.1785048,-635.2423,-2493.9248)"><g
         id="g449"
         clip-path="url(#clipPath453)"><g
           id="g455"
           transform="translate(822.3416,686.5817)"><path
             d="m 0,0 -46.103,-196.356 c -32.576,10.467 -57.941,37.006 -66.776,70.276 l 55.493,-28.595 7.482,14.506 -66.181,34.102 -11.063,5.702 11.03,5.777 66.255,34.705 -7.572,14.457 -55.591,-29.125 c 11.299,43.533 50.851,75.677 97.925,75.677 C -9.969,1.126 -4.928,0.742 0,0"
             style="fill:#1d3573;fill-opacity:1;fill-rule:nonzero;stroke:none"
             id="path457" /></g><g
           id="g459"
           transform="translate(908.2254,580.5226)"><path
             d="m 0,0 -66.181,-34.11 7.473,-14.506 55.502,28.603 c -11.487,-43.256 -50.908,-75.13 -97.778,-75.13 -5.132,0 -10.182,0.383 -15.11,1.125 l 46.103,196.365 C -37.234,91.814 -11.765,65.039 -3.06,31.508 L -58.659,60.633 -66.229,46.176 0.033,11.462 11.055,5.694 Z"
             style="fill:#00adef;fill-opacity:1;fill-rule:nonzero;stroke:none"
             id="path461" /></g><g
           id="g463"
           transform="translate(458.9618,654.5685)"><path
             d="m 0,0 c 18.089,-7.717 31.717,-17.964 40.89,-30.739 9.171,-12.778 13.757,-27.893 13.757,-45.35 0,-25.554 -8.129,-46.143 -24.383,-61.765 -16.256,-15.624 -37.791,-23.433 -64.609,-23.433 -21.885,0 -40.226,5.597 -55.027,16.794 -14.8,11.193 -24.794,27.101 -29.981,47.721 l 29.981,14.8 c 4.048,-16.825 10.72,-29.571 20.019,-38.233 9.296,-8.668 20.967,-12.999 35.008,-12.999 16.571,0 29.981,4.773 40.227,14.325 10.247,9.55 15.37,21.98 15.37,37.287 0,12.396 -3.576,23.178 -10.722,32.353 -7.148,9.168 -17.93,16.917 -32.351,23.243 l -33.776,14.421 c -18.47,7.715 -32.228,17.647 -41.271,29.791 -9.045,12.144 -13.566,26.69 -13.566,43.642 0,19.734 7.335,36.052 22.011,48.955 14.673,12.903 33.396,19.354 56.165,19.354 16.698,0 31.149,-3.542 43.36,-10.625 12.204,-7.086 21.724,-17.522 28.555,-31.309 L 12.334,70.776 C 6.135,81.527 -0.824,89.528 -8.539,94.778 c -7.717,5.248 -16.445,7.876 -26.186,7.876 -12.398,0 -22.55,-3.795 -30.453,-11.385 -7.909,-7.59 -11.86,-17.267 -11.86,-29.031 0,-9.867 3.036,-18.406 9.107,-25.616 6.073,-7.211 15.495,-13.6 28.274,-19.165 z"
             style="fill:#2c2e72;fill-opacity:1;fill-rule:nonzero;stroke:none"
             id="path465" /></g><g
           id="g467"
           transform="translate(680.9412,541.4781)"><path
             d="m 0,0 v -34.534 c -7.845,-4.682 -16.669,-8.189 -26.472,-10.53 -9.803,-2.34 -20.396,-3.512 -31.781,-3.512 -26.819,0 -48.42,8.505 -64.798,25.522 -16.386,17.011 -24.574,39.372 -24.574,67.075 0,27.829 8.475,50.57 25.427,68.214 16.95,17.649 38.643,26.472 65.084,26.472 9.612,0 19.004,-1.014 28.178,-3.037 9.168,-2.024 17.803,-4.998 25.9,-8.918 V 94.875 c -7.59,4.933 -15.435,8.694 -23.529,11.288 -8.097,2.592 -16.319,3.891 -24.667,3.891 -19.482,0 -35.104,-6.105 -46.869,-18.312 -11.764,-12.208 -17.646,-28.43 -17.646,-48.669 0,-17.837 5.911,-32.764 17.743,-44.781 11.824,-12.019 26.658,-18.026 44.494,-18.026 8.982,0 17.773,1.581 26.376,4.744 C -18.533,-11.829 -9.487,-6.831 0,0"
             style="fill:#2c2e72;fill-opacity:1;fill-rule:nonzero;stroke:none"
             id="path469" /></g><g
           id="g471"
           transform="translate(957.0613,649.4449)"><path
             d="M 0,0 H -31.878 V 24.478 H 0 V 94.495 H 30.36 V 24.478 H 62.237 V 0 H 30.36 V -149.143 H 0 Z"
             style="fill:#00adef;fill-opacity:1;fill-rule:nonzero;stroke:none"
             id="path473" /></g><g
           id="g475"
           transform="translate(1057.6288,649.4449)"><path
             d="M 0,0 H -31.878 V 24.478 H 0 V 94.495 H 30.359 V 24.478 H 62.237 V 0 H 30.359 V -149.143 H 0 Z"
             style="fill:#00adef;fill-opacity:1;fill-rule:nonzero;stroke:none"
             id="path477" /></g><path
           d="m 492.741,427.22 h 32.914 v 25.48 h -32.914 z"
           style="fill:#0097fc;fill-opacity:1;fill-rule:nonzero;stroke:none"
           id="path479" /><g
           id="g481"
           transform="translate(1087.0907,419.4025)"><path
             d="M 0,0 H -6.854 L -41.408,27.507 V 0 h -9.071 v 40.827 h 6.852 L -8.976,13.705 V 40.827 H 0 Z m -120.068,0 -5.115,8.976 h -27.024 L -157.324,0 h -9.941 l 24.226,40.827 h 9.557 L -108.871,0 Z m -107.423,0 h -9.266 V 28.087 L -254.998,4.922 h -1.931 l -18.434,22.489 V 0 h -8.012 v 40.827 h 8.012 l 19.979,-24.225 19.881,24.225 h 8.012 z m -113.89,33.492 h -33.297 V 22.875 h 17.952 v -7.626 h -17.952 V 0 h -10.039 v 40.827 h 43.336 z m -101.341,0 H -476.02 V 22.875 h 17.953 V 15.249 H -476.02 V 0 h -10.039 v 40.827 h 43.337 z M -551.495,9.653 c 0,-3.862 -0.773,-6.436 -2.318,-7.722 C -555.357,0.643 -558.123,0 -562.112,0 h -31.561 c -3.991,0 -6.757,0.627 -8.302,1.882 -1.543,1.255 -2.315,3.844 -2.315,7.771 v 21.522 c 0,3.924 0.772,6.516 2.315,7.77 1.545,1.255 4.311,1.882 8.302,1.882 h 31.561 c 3.989,0 6.755,-0.627 8.299,-1.882 1.545,-1.254 2.318,-3.846 2.318,-7.77 z M -704.766,33.298 V 7.818 h 26.833 v 8.686 l 10.037,-2.027 V 9.653 c 0,-3.862 -0.788,-6.436 -2.364,-7.722 C -671.838,0.643 -674.62,0 -678.609,0 h -25.48 c -3.991,0 -6.757,0.643 -8.302,1.931 -1.543,1.286 -2.315,3.86 -2.315,7.722 v 21.522 c 0,3.862 0.772,6.433 2.315,7.721 1.545,1.286 4.311,1.931 8.302,1.931 h 25.48 c 5.084,0 8.235,-1.062 9.459,-3.185 0.835,-1.415 1.254,-4.892 1.254,-10.423 l -10.037,-1.449 v 7.528 z m -42.336,-43.744 H 32.395 v 61.72 h -779.497 z"
             style="fill:#0097fc;fill-opacity:1;fill-rule:nonzero;stroke:none"
             id="path483" /></g><g
           id="g485"
           transform="translate(939.1287,435.8102)"><path
             d="M 0,0 H 18.726 L 9.171,16.988 Z"
             style="fill:#0097fc;fill-opacity:1;fill-rule:nonzero;stroke:none"
             id="path487" /></g></g></g></g></svg>
