<?xml version="1.0" encoding="UTF-8" standalone="no"?>
<!-- Created with Inkscape (http://www.inkscape.org/) -->

<svg
   version="1.1"
   id="svg117"
   xml:space="preserve"
   width="1945.9733"
   height="1591.5867"
   viewBox="0 0 1945.9733 1591.5867"
   sodipodi:docname="name_logo_blue.svg"
   inkscape:version="1.1 (c68e22c387, 2021-05-23)"
   xmlns:inkscape="http://www.inkscape.org/namespaces/inkscape"
   xmlns:sodipodi="http://sodipodi.sourceforge.net/DTD/sodipodi-0.dtd"
   xmlns="http://www.w3.org/2000/svg"
   xmlns:svg="http://www.w3.org/2000/svg"><defs
     id="defs121"><clipPath
       clipPathUnits="userSpaceOnUse"
       id="clipPath131"><path
         d="M 0,1193.693 H 1459.476 V 0 H 0 Z"
         id="path129" /></clipPath></defs><sodipodi:namedview
     id="namedview119"
     pagecolor="#ffffff"
     bordercolor="#999999"
     borderopacity="1"
     inkscape:pageshadow="0"
     inkscape:pageopacity="0"
     inkscape:pagecheckerboard="0"
     showgrid="false"
     inkscape:zoom="0.52274879"
     inkscape:cx="651.3645"
     inkscape:cy="1255.8614"
     inkscape:window-width="1920"
     inkscape:window-height="1017"
     inkscape:window-x="-8"
     inkscape:window-y="-8"
     inkscape:window-maximized="1"
     inkscape:current-layer="g123" /><g
     id="g123"
     inkscape:groupmode="layer"
     inkscape:label="Scott Coffman Final"
     transform="matrix(1.3333333,0,0,-1.3333333,0,1591.5867)"><g
       id="g125"
       transform="matrix(1.3214321,0,0,3.4067665,-229.53945,-1543.3563)"><g
         id="g127"
         clip-path="url(#clipPath131)"><g
           id="g133"
           transform="translate(395.8613,498.0573)"><path
             d="m 0,0 c -6.444,0 -11.229,1.011 -14.355,3.037 -3.131,2.022 -4.692,6.53 -4.692,13.528 v 97.449 c 0,6.991 1.561,11.547 4.692,13.663 3.126,2.116 7.911,3.176 14.355,3.176 h 48.863 c 6.44,0 11.271,-1.06 14.491,-3.176 3.22,-2.116 4.834,-6.672 4.834,-13.663 V 75.639 L 37.821,67.634 v 34.234 c 0,2.389 -0.415,3.954 -1.243,4.692 -0.828,0.733 -2.348,1.104 -4.557,1.104 H 19.047 c -2.209,0 -3.725,-0.371 -4.553,-1.104 -0.831,-0.738 -1.243,-2.303 -1.243,-4.692 V 31.194 c 0,-2.209 0.506,-3.726 1.517,-4.553 1.01,-0.828 2.527,-1.243 4.556,-1.243 H 66.529 V 0 Z"
             style="fill:#00eafd;fill-opacity:1;fill-rule:nonzero;stroke:none"
             id="path135" /></g><g
           id="g137"
           transform="translate(516.9595,521.7999)"><path
             d="m 0,0 h 9.387 c 4.044,0 6.53,0.457 7.451,1.378 0.921,0.921 1.382,3.404 1.382,7.455 v 66.255 c 0,4.044 -0.461,6.531 -1.382,7.452 -0.921,0.921 -3.407,1.381 -7.451,1.381 H 0 c -4.051,0 -6.534,-0.46 -7.455,-1.381 -0.921,-0.921 -1.378,-3.408 -1.378,-7.452 V 8.833 c 0,-4.051 0.457,-6.534 1.378,-7.455 C -6.534,0.457 -4.051,0 0,0 m -16.842,-23.743 c -4.969,0 -9.065,0.278 -12.281,0.828 -3.224,0.554 -5.755,1.659 -7.593,3.314 -1.843,1.655 -3.086,4.043 -3.726,7.178 -0.648,3.126 -0.966,7.177 -0.966,12.146 v 83.921 c 0,4.969 0.318,9.017 0.966,12.147 0.64,3.126 1.883,5.522 3.726,7.178 1.838,1.658 4.369,2.759 7.593,3.313 3.216,0.551 7.312,0.828 12.281,0.828 h 42.79 c 4.969,0 9.11,-0.277 12.424,-0.828 3.314,-0.554 5.89,-1.655 7.728,-3.313 1.838,-1.656 3.13,-4.052 3.868,-7.178 0.73,-3.13 1.105,-7.178 1.105,-12.147 V -0.277 c 0,-4.789 -0.326,-8.698 -0.967,-11.735 -0.647,-3.036 -1.797,-5.429 -3.452,-7.174 -1.654,-1.752 -4.003,-2.946 -7.039,-3.59 -3.037,-0.648 -6.949,-0.967 -11.735,-0.967 z"
             style="fill:#00eafd;fill-opacity:1;fill-rule:nonzero;stroke:none"
             id="path139" /></g><g
           id="g141"
           transform="translate(622.8784,498.0573)"><path
             d="m 0,0 c -5.156,0 -9.342,0.277 -12.562,0.828 -3.22,0.554 -5.755,1.658 -7.59,3.314 -1.842,1.654 -3.085,4.043 -3.729,7.177 -0.648,3.127 -0.966,7.178 -0.966,12.147 v 83.644 h -18.497 l 51.9,67.637 v -43.894 h 24.02 V 107.11 H 8.556 V 33.403 c 0,-4.235 0.457,-6.811 1.382,-7.728 0.917,-0.925 3.493,-1.382 7.728,-1.382 h 14.91 L 32.576,0 Z"
             style="fill:#00eafd;fill-opacity:1;fill-rule:nonzero;stroke:none"
             id="path143" /></g><g
           id="g145"
           transform="translate(710.3008,498.0573)"><path
             d="m 0,0 c -5.156,0 -9.342,0.277 -12.563,0.828 -3.219,0.554 -5.754,1.658 -7.589,3.314 -1.842,1.654 -3.085,4.043 -3.729,7.177 -0.648,3.127 -0.966,7.178 -0.966,12.147 v 83.644 h -18.497 l 51.9,67.637 V 130.853 H 32.575 V 107.11 H 8.556 V 33.403 c 0,-4.235 0.456,-6.811 1.381,-7.728 0.917,-0.925 3.494,-1.382 7.729,-1.382 H 32.575 V 0 Z"
             style="fill:#00eafd;fill-opacity:1;fill-rule:nonzero;stroke:none"
             id="path147" /></g><g
           id="g149"
           transform="translate(904.0181,546.6632)"><path
             d="m 0,0 c 0,-0.098 -0.098,-0.195 -0.098,-0.292 -1.756,-2.05 -3.513,-4.197 -5.074,-6.344 l -0.391,-0.39 -5.465,-6.93 c -3.416,-4.294 -7.222,-8.685 -11.321,-13.369 -8.588,-9.662 -16.785,-18.054 -24.495,-25.276 -4.684,-4.392 -9.076,-8.198 -13.37,-11.614 -5.172,-4.196 -10.052,-7.612 -14.639,-10.442 -4.684,-3.123 -10.441,-5.563 -17.078,-7.514 -1.366,-0.293 -2.732,-0.488 -4.001,-0.683 l -1.073,-0.098 c -0.683,0 -1.367,-0.098 -2.05,-0.098 h -0.39 -0.098 -0.781 c -0.488,0 -1.073,0.098 -1.658,0.098 -3.514,0.293 -6.93,1.268 -9.955,2.732 -3.025,1.562 -5.758,3.611 -8.197,6.246 -2.05,2.245 -4.002,4.977 -5.661,8.1 -2.635,4.88 -4.782,10.735 -6.343,17.469 -2.44,9.954 -3.611,21.861 -3.709,35.621 -0.097,21.665 2.538,45.087 7.71,70.168 4.88,23.421 12.101,45.77 21.763,67.044 5.562,12.102 11.223,22.447 17.273,31.132 3.709,5.367 7.515,10.149 11.321,14.053 1.952,2.05 4.294,4.099 6.929,6.246 2.83,2.147 5.562,3.806 8.198,4.977 3.318,1.464 6.538,2.245 9.758,2.538 3.416,0.194 6.832,-0.293 10.052,-1.27 3.221,-1.073 6.149,-2.634 8.881,-4.781 2.342,-1.855 4.587,-4.197 6.734,-7.124 l 1.366,-2.05 1.366,-2.342 c 0.098,-0.195 0.196,-0.488 0.391,-0.683 l 0.781,-1.854 c 0.292,-0.391 0.488,-0.879 0.683,-1.367 1.366,-3.415 2.342,-6.343 2.928,-8.881 1.268,-5.464 2.049,-11.515 2.049,-18.054 0.098,-6.148 -0.293,-12.101 -1.074,-17.956 -0.878,-6.051 -1.951,-11.907 -3.318,-17.469 -1.073,-4.587 -2.342,-9.076 -3.611,-13.468 -0.292,-1.171 -0.683,-2.342 -0.976,-3.513 l -2.537,-8.393 -1.366,-4.196 c -0.488,-1.367 -0.878,-2.635 -1.074,-3.904 -0.195,-1.269 -0.78,-2.244 -1.756,-3.025 -0.976,-0.781 -2.147,-1.074 -3.416,-0.976 -2.342,0.293 -3.22,1.561 -2.439,3.806 0.097,0.195 0.194,0.39 0.292,0.683 0.195,0.195 0.293,0.488 0.488,0.781 0.097,0.195 0.293,0.488 0.39,0.585 0.098,0.196 0.196,0.293 0.196,0.293 0.292,0.488 1.658,3.709 4.001,9.661 2.44,6.051 4.684,13.664 7.027,22.935 2.244,9.271 3.415,19.03 3.415,29.277 0.098,10.247 -1.952,19.81 -6.246,28.789 l -1.269,2.732 c -0.097,0.098 -0.097,0.196 -0.195,0.391 0,0 -0.097,0 -0.097,0.098 l -1.171,2.049 -1.171,1.561 c -1.562,2.245 -3.319,4.001 -5.173,5.465 -2.049,1.562 -4.196,2.636 -6.441,3.319 -2.342,0.78 -4.684,1.073 -7.124,0.878 -2.244,-0.195 -4.587,-0.878 -6.929,-1.952 -2.049,-0.878 -4.294,-2.342 -6.636,-4.099 -2.245,-1.854 -4.196,-3.611 -5.953,-5.465 -3.416,-3.611 -6.831,-8.002 -10.247,-13.175 -5.563,-8.295 -10.93,-18.249 -16.103,-29.96 -4.391,-9.857 -8.392,-20.592 -12.003,-32.107 -3.416,-10.736 -6.246,-21.763 -8.49,-33.181 -2.245,-11.126 -4.002,-22.446 -5.27,-33.962 -1.269,-11.613 -1.952,-22.934 -2.05,-34.254 0,-5.953 0.195,-11.613 0.683,-16.981 0.488,-6.051 1.269,-11.613 2.342,-16.493 1.367,-5.953 3.123,-11.028 5.368,-15.224 2.635,-5.075 5.855,-8.588 9.759,-10.638 2.049,-1.073 4.196,-1.658 6.636,-1.951 h 1.074 c 0.293,-0.098 0.487,-0.098 0.78,-0.098 h 0.391 0.097 c 0.391,0 0.781,0.098 1.269,0.098 0.293,0 0.586,0.097 0.878,0.097 0.976,0.098 1.855,0.196 2.733,0.391 l 0.098,0.097 c 13.858,3.709 27.52,11.321 40.987,23.032 13.468,11.613 24.691,22.933 33.767,33.864 9.076,10.93 14.053,17.078 14.931,18.639 0.196,0.293 0.489,0.684 0.879,1.074 0.488,0.488 0.976,0.781 1.464,1.074 0.585,0.195 1.073,0.195 1.463,-0.098 C 1.073,2.928 1.171,1.562 0,0"
             style="fill:#0097fc;fill-opacity:1;fill-rule:nonzero;stroke:none"
             id="path151" /></g><g
           id="g153"
           transform="translate(905.2866,538.2706)"><path
             d="m 0,0 c 0,-1.757 0.195,-4.294 0.683,-7.515 0.39,-1.951 0.976,-3.806 1.757,-5.66 1.073,-2.147 2.147,-3.318 3.22,-3.513 1.074,-0.195 2.342,0.39 3.806,1.756 4.294,4.49 7.222,10.443 8.881,17.86 C 15.81,2.537 12.784,2.342 9.271,2.537 5.758,2.635 2.732,3.22 0.195,4.196 0,3.22 -0.098,1.756 0,0 m 9.662,8.588 c 4.001,-0.683 7.319,-0.976 9.954,-0.781 0.683,3.221 0.976,6.929 0.878,11.223 -0.195,4.392 -1.268,7.514 -3.221,9.467 -2.927,2.537 -6.831,2.634 -11.418,0.292 -1.366,-0.683 -2.83,-1.756 -4.293,-3.122 -2.733,-2.928 -4.294,-5.075 -4.685,-6.344 -0.585,-1.073 -0.976,-2.147 -1.269,-3.22 0.488,1.366 0.976,2.537 1.464,3.415 1.854,2.928 4.001,4.392 6.636,4.392 1.854,-0.098 3.318,-0.879 4.099,-2.245 L 8.1,21.177 7.612,21.08 C 7.222,20.982 6.832,20.884 6.441,20.787 5.855,20.787 5.27,20.592 4.587,20.201 4.001,19.811 3.416,19.03 2.83,17.664 2.245,16.297 1.562,14.248 0.878,11.32 2.732,10.247 5.66,9.369 9.662,8.588 M 39.329,8.295 C 38.938,7.612 37.768,7.026 35.816,6.441 33.961,5.855 31.912,5.367 29.765,4.879 27.618,4.489 25.861,4.196 24.593,4.001 24.105,1.464 22.934,-1.952 21.08,-6.148 c -1.854,-4.197 -4.49,-8.295 -7.905,-12.102 -2.928,-3.025 -5.758,-4.489 -8.296,-4.489 -0.39,0 -0.878,0 -1.268,0.098 -3.026,0.585 -5.465,3.415 -7.515,8.392 -1.561,4.002 -2.537,8.198 -2.732,12.492 -0.196,3.513 -0.39,6.539 -0.39,9.174 l -0.293,0.195 c -0.976,0.781 -2.05,1.952 -3.123,3.611 -1.464,2.927 -1.074,6.441 1.171,10.637 2.147,4.197 5.075,7.807 8.88,10.735 6.637,4.977 12.687,5.66 18.055,2.245 3.416,-2.44 5.758,-5.758 6.831,-10.052 1.269,-5.758 1.366,-11.321 0.391,-16.59 5.074,0.488 8.49,0.975 10.344,1.366 1.269,0.195 2.245,0.292 2.831,0.292 0.585,0 0.975,-0.194 1.268,-0.683 0.098,-0.292 0.098,-0.585 0,-0.878"
             style="fill:#0097fc;fill-opacity:1;fill-rule:nonzero;stroke:none"
             id="path155" /></g><g
           id="g157"
           transform="translate(999.1689,595.0685)"><path
             d="M 0,0 C 0.585,2.342 0.878,4.587 0.781,6.831 L 0.683,6.636 C 0.098,5.172 -0.39,3.611 -0.878,1.952 -1.171,0.878 -1.562,-0.293 -1.952,-1.366 c -0.78,-2.83 -1.464,-5.661 -2.049,-8.491 -0.586,-2.732 -1.074,-5.465 -1.561,-8.197 -0.098,-0.196 -0.098,-0.293 -0.098,-0.488 l -0.195,-1.074 0.39,1.171 c 0.293,0.976 0.683,1.952 0.976,3.026 0.683,1.756 1.268,3.61 1.854,5.367 l 1.171,4.294 0.586,2.147 c 0,0.098 0.097,0.293 0.097,0.39 0.196,0.586 0.293,1.172 0.488,1.757 C -0.195,-0.976 -0.098,-0.488 0,0 m -6.539,-60.409 h 0.098 c -1.074,0.488 -2.049,0.879 -3.123,0.976 -0.488,0.098 -0.878,-0.097 -1.073,-0.488 -0.293,-0.39 -0.391,-0.878 -0.488,-1.464 -0.098,-0.781 -0.195,-1.561 -0.195,-2.342 -0.098,-0.293 -0.098,-0.586 -0.098,-0.878 0,-0.488 -0.098,-0.878 -0.098,-1.367 -0.097,-0.585 -0.097,-1.268 -0.195,-1.951 -0.195,-4.392 -0.292,-8.784 -0.292,-13.175 0,-4.392 0.194,-8.783 0.487,-13.175 0.196,-2.147 0.391,-4.392 0.683,-6.538 0.098,-0.391 0.098,-0.684 0.196,-1.074 0,-0.78 0.097,-1.464 0.292,-2.147 0.098,-0.586 0.196,-0.976 0.391,-1.464 0.098,-0.195 0.195,-0.39 0.39,-0.39 0,-0.098 0,-0.098 0.098,-0.098 h 0.097 c 0.879,0.391 1.66,1.074 2.343,1.855 0.683,0.878 1.268,1.659 1.756,2.634 1.074,1.855 2.049,3.807 2.83,5.856 1.562,4.001 2.733,8.198 3.416,12.492 0.39,2.147 0.586,4.293 0.683,6.44 0.098,2.147 -0.097,4.294 -0.585,6.441 -1.074,4.392 -3.611,7.613 -7.613,9.857 M -28.984,22.543 -29.18,22.25 c -0.78,-2.244 -1.561,-4.391 -2.244,-6.636 -0.293,-1.268 -0.683,-2.439 -1.074,-3.708 -1.073,-3.611 -1.952,-7.222 -2.732,-10.833 -0.781,-3.611 -1.464,-7.221 -2.147,-10.832 v -0.196 l -0.781,-4.196 c 1.757,4.977 3.318,9.955 4.88,14.932 1.171,3.611 2.147,7.319 2.927,11.028 l 0.586,2.732 c 0,0.098 0.098,0.292 0.098,0.39 0.194,0.781 0.292,1.562 0.39,2.44 0.39,1.757 0.488,3.513 0.293,5.27 z m -9.857,-141.896 c 0.78,1.073 1.561,2.146 2.342,3.317 1.366,2.44 2.538,4.88 3.513,7.515 2.05,5.172 3.513,10.442 4.392,16.005 0.488,2.732 0.683,5.465 0.781,8.198 0.195,2.83 -0.098,5.562 -0.684,8.197 -0.683,2.733 -1.854,5.172 -3.513,7.417 -1.659,2.245 -3.806,4.001 -6.245,5.27 v 0.098 c -1.269,0.585 -2.636,0.975 -3.904,1.268 -0.683,0 -1.171,-0.195 -1.562,-0.781 -0.293,-0.487 -0.487,-1.073 -0.585,-1.854 -0.195,-0.976 -0.293,-1.952 -0.293,-3.025 0,-0.391 0,-0.683 -0.098,-1.074 0,-0.585 -0.097,-1.073 -0.097,-1.658 -0.098,-0.879 -0.098,-1.757 -0.195,-2.538 -0.293,-5.66 -0.489,-11.223 -0.489,-16.883 0,-5.66 0.196,-11.223 0.684,-16.884 0.195,-2.732 0.488,-5.562 0.878,-8.295 0,-0.488 0.098,-0.878 0.098,-1.366 0.097,-0.976 0.293,-1.854 0.39,-2.83 0.195,-0.683 0.39,-1.269 0.586,-1.854 0.195,-0.293 0.292,-0.488 0.488,-0.586 0.097,-0.097 0.195,-0.097 0.195,-0.097 h 0.293 c 1.171,0.585 2.147,1.366 3.025,2.44 m 14.931,25.666 -0.585,-2.635 c -0.098,-0.586 -0.195,-1.073 -0.391,-1.659 0,-0.293 -0.097,-0.586 -0.195,-0.976 -0.39,-1.659 -0.878,-3.416 -1.366,-5.172 -1.074,-3.416 -2.342,-6.734 -3.806,-9.955 -1.561,-3.22 -3.416,-6.343 -5.465,-9.271 -0.488,-0.683 -1.074,-1.464 -1.757,-2.049 -0.683,-0.683 -1.561,-1.171 -2.537,-1.464 -0.879,-0.293 -1.854,-0.293 -2.83,-0.098 -0.976,0.196 -1.855,0.488 -2.636,1.074 -1.658,1.171 -2.634,2.635 -3.22,4.586 -0.195,0.879 -0.39,1.757 -0.488,2.636 l -0.39,2.634 c -0.488,3.514 -0.976,7.027 -1.269,10.638 -0.293,3.513 -0.39,7.026 -0.488,10.637 0,3.513 -0.097,7.124 0,10.637 0,7.125 0.391,14.249 0.878,21.275 0.293,3.611 0.586,7.124 1.074,10.638 0.195,1.756 0.39,3.513 0.586,5.27 0.097,0.585 0.195,1.073 0.195,1.561 0,0.391 0.098,0.781 0.098,1.074 l 0.194,1.366 0.098,0.683 v 0.195 c 0,0.098 0.098,0.293 0.098,0.488 l 1.757,13.175 c 0.194,1.562 0.39,3.123 0.585,4.684 0.39,2.928 0.781,5.758 1.171,8.589 0.781,4.391 1.659,8.783 2.83,13.174 l 3.318,12.98 V 10.93 c 0.879,3.611 2.05,7.124 3.513,10.54 0.684,1.659 1.562,3.318 2.635,4.88 0.098,0 0.098,0.097 0.098,0.097 0.293,0.293 0.585,0.683 0.976,0.976 0.39,0.39 0.781,0.585 1.269,0.781 0.487,0.195 1.073,0.293 1.659,0.293 0.488,-0.098 0.976,-0.196 1.464,-0.489 1.268,-0.878 2.049,-2.049 2.342,-3.513 0.195,-0.683 0.195,-1.366 0.195,-2.049 v -1.952 c -0.293,-2.635 -0.781,-5.27 -1.561,-7.807 -0.098,-0.391 -0.196,-0.878 -0.293,-1.269 -0.196,-0.878 -0.391,-1.659 -0.683,-2.439 l -1.074,-3.807 c -0.293,-0.78 -0.488,-1.659 -0.781,-2.44 -0.195,-0.39 -0.292,-0.878 -0.39,-1.268 -0.195,-0.391 -0.293,-0.879 -0.488,-1.269 -0.195,-0.78 -0.488,-1.659 -0.781,-2.44 l -5.367,-14.736 c -0.293,-0.878 -0.586,-1.659 -0.879,-2.537 -0.585,-1.659 -1.171,-3.221 -1.756,-4.782 l -2.83,-7.222 -0.586,-6.148 v -1.074 c -0.195,-2.44 -0.488,-4.879 -0.781,-7.319 -0.097,-0.781 -0.195,-1.562 -0.292,-2.342 -0.196,-1.659 -0.391,-3.318 -0.586,-4.977 -0.097,-0.586 -0.097,-1.171 -0.097,-1.757 -0.098,-0.097 0,-0.097 0,-0.195 l 0.097,-0.098 h 0.098 0.097 0.098 l 0.39,0.196 3.416,1.073 3.806,1.659 c 0.195,0 0.39,0.098 0.585,0.195 0.488,0.195 0.879,0.391 1.269,0.586 0.586,0.292 1.171,0.585 1.757,0.878 2.439,1.269 4.782,2.635 7.026,4.099 2.343,1.366 4.49,2.928 6.441,4.782 1.074,0.878 1.952,1.854 2.83,2.83 0.684,0.683 1.172,1.366 1.757,2.147 0.195,0.39 0.391,0.683 0.586,0.976 l 1.171,8.49 0.585,4.294 c 0.196,1.464 0.488,2.831 0.781,4.294 0.586,2.83 1.269,5.661 1.952,8.393 l 2.147,8.491 v -0.098 c 0.683,2.83 1.659,5.563 2.732,8.295 0.586,1.269 1.269,2.538 2.147,3.806 0.488,0.586 1.074,1.074 1.855,1.464 0.39,0.098 0.78,0.195 1.171,0.195 0.488,-0.097 0.78,-0.195 1.171,-0.39 C 3.416,10.54 4.099,9.662 4.294,8.49 4.489,7.417 4.489,6.343 4.392,5.367 4.196,3.318 3.806,1.269 3.221,-0.683 3.123,-1.074 3.025,-1.366 2.928,-1.757 2.83,-2.44 2.635,-3.025 2.44,-3.708 L 1.562,-6.636 C 0.976,-8.588 0.293,-10.54 -0.293,-12.394 L -4.489,-23.91 c -1.366,-3.708 -2.733,-7.417 -4.197,-11.125 0,-0.098 -0.097,-0.195 -0.097,-0.293 -0.196,-1.464 -0.39,-2.928 -0.488,-4.489 0,-1.464 -0.195,-2.928 -0.293,-4.489 -0.195,-1.269 -0.39,-2.538 -0.488,-3.806 -0.097,-0.196 -0.097,-0.391 -0.097,-0.586 -0.196,-1.366 -0.391,-2.733 -0.488,-4.099 1.073,0.098 2.147,0.293 3.22,0.586 1.171,0.293 2.342,0.586 3.513,0.878 2.342,0.781 4.685,1.464 6.929,2.245 l 6.929,2.342 c 0.391,0.098 0.683,0.195 1.074,0.293 1.951,0.683 4.001,1.268 6.051,1.659 0.292,0 0.585,0.097 0.975,0.097 0.196,0 0.293,-0.097 0.488,-0.097 0.098,0 0.098,-0.098 0.195,-0.098 0,0 0.098,-0.097 0.098,-0.195 0.098,-0.098 0.098,-0.195 0.098,-0.293 0,-0.098 -0.098,-0.098 -0.098,-0.195 -0.195,-0.195 -0.39,-0.39 -0.585,-0.586 h -0.196 c -0.292,-0.195 -0.488,-0.39 -0.781,-0.487 -1.17,-0.586 -2.244,-1.074 -3.317,-1.562 -2.343,-0.878 -4.587,-1.854 -6.832,-2.732 L 0.293,-53.578 C 0,-53.675 -0.39,-53.87 -0.683,-53.968 c -1.952,-0.781 -3.806,-1.561 -5.66,-2.537 L -6.636,-56.7 v -0.098 c 0.097,0 0.097,0 0.195,-0.098 0,0 0.098,0 0.195,-0.097 0.098,0 0.195,0 0.293,-0.098 l 0.391,-0.292 1.756,-1.172 1.659,-1.268 c 0.293,-0.293 0.683,-0.586 0.976,-0.879 0.195,-0.195 0.39,-0.39 0.488,-0.487 2.049,-2.05 3.611,-4.294 4.684,-6.93 0.976,-2.732 1.464,-5.464 1.367,-8.197 0,-2.83 -0.293,-5.563 -0.781,-8.295 -0.976,-5.563 -2.635,-10.833 -5.075,-15.908 -1.171,-2.439 -2.635,-4.879 -4.294,-7.124 -0.39,-0.585 -0.878,-1.073 -1.464,-1.561 -0.586,-0.488 -1.269,-0.781 -2.049,-0.976 -0.781,-0.098 -1.464,-0.098 -2.245,0.098 -0.683,0.195 -1.366,0.585 -1.952,0.976 -1.171,1.073 -1.854,2.244 -2.244,3.708 -0.098,0.683 -0.195,1.269 -0.293,1.952 0,0 -0.097,0.097 -0.097,0.195 l -0.293,2.049 c -0.391,2.733 -0.684,5.465 -0.879,8.198 -0.195,2.83 -0.292,5.563 -0.292,8.295 -0.098,2.83 -0.098,5.563 -0.098,8.295 0.098,5.563 0.293,11.125 0.781,16.591 0.195,2.83 0.488,5.562 0.781,8.295 0.097,1.366 0.292,2.733 0.487,4.099 0,0.39 0.098,0.781 0.098,1.268 0.098,0.196 0.098,0.489 0.098,0.781 l 0.097,1.074 c 0.098,0.098 0.098,0.195 0.098,0.195 0,0.293 0,0.488 0.097,0.78 l 0.293,2.44 c -1.268,-1.561 -2.635,-2.927 -4.001,-4.196 -1.854,-1.659 -3.708,-3.123 -5.661,-4.587 -1.951,-1.366 -4.001,-2.635 -6.05,-3.904 -1.659,-0.975 -3.416,-1.854 -5.172,-2.732 -0.293,-0.098 -0.488,-0.195 -0.683,-0.293 l -0.489,-0.293 -3.025,-1.268 c -0.097,-0.098 -0.195,-0.098 -0.195,-0.098 0,-0.097 0,-0.097 0.098,-0.097 0.292,-0.196 0.683,-0.391 1.073,-0.586 h 0.195 0.098 c 0,-0.097 0,-0.097 0.098,-0.097 l 0.292,-0.196 0.586,-0.39 1.073,-0.781 c 0.683,-0.39 1.269,-0.78 1.757,-1.268 0.195,-0.098 0.293,-0.196 0.39,-0.293 l 1.074,-0.879 c 0.195,-0.195 0.488,-0.39 0.683,-0.585 0.097,-0.098 0.195,-0.195 0.293,-0.293 2.732,-2.537 4.782,-5.367 6.246,-8.783 1.366,-3.318 2.147,-6.831 2.147,-10.54 0.097,-3.513 -0.196,-7.124 -0.879,-10.637"
             style="fill:#0097fc;fill-opacity:1;fill-rule:nonzero;stroke:none"
             id="path159" /></g><g
           id="g161"
           transform="translate(1112.7646,541.9791)"><path
             d="m 0,0 c 0.195,-0.195 0.293,-0.391 0.391,-0.683 v -0.293 c 0,-0.098 -0.098,-0.195 -0.098,-0.293 V -1.366 L 0.195,-1.464 c -2.83,-2.635 -5.953,-4.88 -9.466,-6.636 -1.757,-0.781 -3.611,-1.464 -5.563,-1.757 -1.952,-0.39 -3.903,-0.292 -5.855,0.195 -2.05,0.488 -3.708,1.464 -5.172,2.928 -1.464,1.366 -2.636,3.026 -3.416,4.782 -0.781,1.854 -1.659,3.416 -2.733,4.977 -1.073,1.659 -2.537,2.733 -4.196,3.318 -1.757,0.196 -3.416,-0.293 -4.977,-1.464 -1.562,-1.073 -2.928,-2.342 -4.099,-3.806 -1.854,-2.244 -3.513,-4.586 -4.977,-7.124 -0.488,-0.781 -0.976,-1.561 -1.464,-2.342 -0.586,-0.781 -1.073,-1.562 -1.659,-2.342 -0.586,-0.878 -1.171,-1.561 -1.952,-2.342 -0.683,-0.683 -1.464,-1.269 -2.44,-1.757 -0.976,-0.488 -2.049,-0.683 -3.122,-0.585 -1.074,0.195 -2.05,0.585 -2.928,1.268 -0.781,0.683 -1.464,1.464 -1.952,2.342 -0.976,1.757 -1.659,3.611 -2.147,5.465 -0.293,1.172 -0.488,2.245 -0.781,3.319 -0.097,0.78 -0.293,1.561 -0.488,2.342 l -0.39,1.366 -0.293,1.464 c -0.098,0.488 -0.195,0.878 -0.293,1.269 -0.097,0.292 -0.292,0.585 -0.585,0.585 -0.684,0.293 -1.367,0.098 -1.952,-0.488 -0.586,-0.683 -1.074,-1.366 -1.562,-2.244 l -3.025,-4.88 c -0.585,-0.976 -1.171,-1.854 -1.659,-2.83 -1.464,-2.342 -2.928,-4.684 -4.294,-7.027 l -2.928,-4.977 c 0,-0.097 -0.097,-0.293 -0.195,-0.39 -0.195,-0.293 -0.293,-0.586 -0.488,-0.878 -0.292,-0.391 -0.683,-0.879 -1.073,-1.172 -0.781,-0.878 -1.757,-1.366 -2.928,-1.464 -1.171,-0.097 -2.245,0.098 -3.221,0.586 -0.975,0.586 -1.756,1.367 -2.244,2.342 -0.488,1.074 -0.683,2.147 -0.586,3.221 v 2.83 l 0.098,11.516 0.293,11.515 0.195,5.758 v 0.684 c 0,0.683 0,1.463 0.097,2.244 0.098,0.488 0.196,1.073 0.489,1.659 0.097,0.293 0.292,0.488 0.585,0.781 0.098,0.097 0.195,0.195 0.293,0.293 0.195,0.097 0.293,0.097 0.39,0.195 l 0.196,0.097 h 0.194 c 0.879,0.098 1.855,-0.097 2.928,-0.39 0.488,-0.195 0.879,-0.488 1.366,-0.878 0.391,-0.391 0.683,-0.879 0.879,-1.367 0.293,-0.976 0.39,-1.854 0.39,-2.732 v -0.098 c 0.098,-0.878 0.098,-1.854 0,-2.732 -0.097,-2.05 -0.195,-4.099 -0.39,-6.149 -0.196,-1.464 -0.293,-3.025 -0.39,-4.489 0,-0.488 -0.098,-0.975 -0.098,-1.366 v -1.269 l -0.195,-2.732 c -0.196,-1.757 -0.293,-3.514 -0.196,-5.172 v -0.684 -0.195 h 0.098 c 0.098,0.195 0.293,0.39 0.391,0.683 0.097,0.098 0.194,0.196 0.194,0.293 l 0.684,1.171 c 0.39,0.488 0.683,0.976 0.976,1.464 0.585,0.976 1.268,2.049 1.854,3.025 0.878,1.562 1.854,3.123 2.83,4.587 l 3.22,4.294 c 1.074,1.464 2.44,2.733 4.197,3.709 0.878,0.39 1.757,0.683 2.733,0.78 0.975,0 1.951,0 2.83,-0.292 0.976,-0.196 1.854,-0.488 2.634,-0.977 0.879,-0.585 1.562,-1.17 2.147,-2.049 0.976,-1.561 1.66,-3.318 1.953,-5.075 0.097,-0.683 0.292,-1.268 0.39,-1.854 0.097,-0.195 0.097,-0.488 0.195,-0.78 0.098,-0.586 0.292,-1.172 0.39,-1.757 0.098,-0.293 0.098,-0.586 0.195,-0.879 v -0.097 c 0.196,-1.659 0.684,-3.123 1.464,-4.392 0.586,0.098 1.171,0.391 1.562,0.879 0.488,0.487 0.878,1.073 1.171,1.854 h 0.097 c 0.293,0.781 0.781,1.464 1.269,2.147 l 1.367,2.049 c 1.756,2.733 3.903,5.27 6.343,7.515 2.635,2.244 5.66,3.611 9.076,4.001 3.513,0.293 6.636,-0.683 9.466,-2.83 1.269,-0.976 2.44,-2.245 3.416,-3.513 0.975,-1.367 1.854,-2.83 2.342,-4.392 0.097,-0.195 0.195,-0.391 0.293,-0.585 0.487,-1.367 1.073,-2.538 1.854,-3.709 0.488,-0.586 1.073,-1.171 1.757,-1.561 0.585,-0.391 1.366,-0.586 2.146,-0.683 1.562,-0.196 3.124,0 4.587,0.487 1.562,0.488 3.123,1.074 4.587,1.757 0.976,0.488 2.05,1.073 3.025,1.562 0.489,0.195 0.879,0.39 1.269,0.585 l 2.245,1.171 c 0.292,0.195 0.683,0.391 1.171,0.488 0.195,0.097 0.39,0.097 0.683,0.097 0.195,0 0.488,0 0.683,-0.194 z"
             style="fill:#0097fc;fill-opacity:1;fill-rule:nonzero;stroke:none"
             id="path163" /></g><g
           id="g165"
           transform="translate(1118.0347,528.2189)"><path
             d="m 0,0 c -1.366,-0.293 -2.83,-0.391 -4.294,-0.391 -1.561,0 -3.025,0.586 -4.294,1.66 -0.586,0.487 -0.976,1.073 -1.366,1.756 -0.391,0.683 -0.684,1.464 -0.781,2.245 -0.098,1.659 0.195,3.123 0.976,4.489 0.78,1.268 1.659,2.44 2.635,3.416 1.952,2.147 4.001,4.098 6.246,5.855 4.391,3.708 9.466,6.344 15.028,7.905 5.563,1.464 11.224,1.854 16.981,1.073 1.464,-0.195 2.928,-0.585 4.294,-1.171 0.683,-0.39 1.269,-0.78 1.952,-1.171 0.293,-0.292 0.586,-0.488 0.781,-0.781 0.195,-0.195 0.39,-0.39 0.488,-0.683 0.098,-0.292 0.195,-0.488 0.195,-0.781 -0.097,-0.585 -0.293,-1.073 -0.683,-1.463 -0.39,-0.391 -0.878,-0.586 -1.464,-0.586 -0.39,0 -0.683,0 -0.878,0.098 -0.098,0 -0.195,0.097 -0.293,0.097 l -1.073,0.196 -0.976,0.292 c -0.196,0 -0.391,0 -0.683,0.098 h -0.293 c -0.293,0.097 -0.488,0.097 -0.781,0.195 -0.39,0 -0.879,0.098 -1.269,0.195 -2.732,0.293 -5.465,0.293 -8.295,-0.097 C 19.42,22.153 16.786,21.47 14.248,20.396 11.711,19.323 9.369,17.957 7.124,16.297 4.977,14.639 3.025,12.687 1.269,10.54 0.878,10.052 0.585,9.661 0.292,9.173 0.195,9.076 0.098,8.978 0,8.88 L -0.585,8.002 -0.878,7.612 C -0.976,7.514 -0.976,7.417 -0.976,7.319 c -0.098,-0.195 0,-0.39 0.098,-0.586 0.097,-0.097 0.293,-0.194 0.487,-0.194 l 0.098,-0.098 c 0.098,0.098 0.098,0.098 0.195,0.098 H 0.39 c 0.293,0 0.488,0.097 0.683,0.097 0.098,0.097 0.196,0.097 0.293,0.097 2.537,0.781 4.88,2.147 7.027,4.002 0.586,0.488 1.171,0.878 1.659,1.366 0.293,0.195 0.585,0.39 0.878,0.586 0.293,0.195 0.586,0.39 0.879,0.585 0.975,0.781 1.951,1.561 2.83,2.342 0.194,0.098 0.292,0.196 0.39,0.293 1.074,0.976 2.244,1.854 3.416,2.635 1.171,0.781 2.439,1.464 3.805,2.049 0.781,0.196 1.562,0.293 2.343,0.098 0.878,-0.195 1.464,-0.585 1.951,-1.269 0.879,-1.268 1.562,-2.537 1.953,-3.903 v -0.195 c 0.39,-1.269 0.878,-2.538 1.463,-3.611 0.684,-1.269 1.562,-2.245 2.733,-2.928 2.342,-1.366 4.977,-1.757 7.807,-1.464 2.732,0.39 5.368,1.269 7.808,2.733 2.439,1.268 4.781,2.83 7.026,4.489 1.073,0.781 2.245,1.659 3.318,2.537 l 1.659,1.269 0.781,0.683 c 0.097,0.097 0.195,0.097 0.293,0.195 0.097,0.195 0.39,0.293 0.683,0.488 h -0.098 0.098 c 0.097,0.098 0.195,0.098 0.292,0.195 0.098,0.098 0.293,0.098 0.489,0.098 0.292,0.098 0.585,0 0.878,-0.098 h 0.097 c 0.196,-0.097 0.293,-0.195 0.489,-0.39 0.194,-0.195 0.292,-0.391 0.292,-0.683 0,-0.195 0,-0.488 -0.098,-0.683 -0.097,-0.098 -0.097,-0.195 -0.194,-0.195 0,-0.098 -0.098,-0.196 -0.098,-0.196 l -0.098,-0.097 c -0.195,-0.293 -0.488,-0.586 -0.781,-0.878 l -0.683,-0.781 -0.097,0.097 C 61.58,15.029 60.506,14.15 59.335,13.37 58.164,12.491 56.993,11.711 55.822,10.93 53.382,9.466 50.942,8.1 48.405,6.929 45.868,5.66 43.232,4.586 40.5,3.806 37.865,2.83 35.035,2.342 32.01,2.537 30.546,2.635 29.18,3.123 27.911,3.903 26.642,4.684 25.569,5.562 24.495,6.636 24.397,6.733 24.3,6.831 24.203,7.026 23.812,7.417 23.422,7.807 23.129,8.197 l -0.683,0.879 c -0.098,0.097 -0.196,0.097 -0.196,0.195 -0.194,0.195 -0.292,0.39 -0.487,0.488 -0.391,0.488 -0.976,0.683 -1.464,0.683 -0.586,0 -1.171,-0.195 -1.757,-0.488 C 17.859,9.466 17.078,8.88 16.395,8.393 12.687,5.367 8.686,2.928 4.196,1.073 2.83,0.585 1.464,0.195 0,0"
             style="fill:#0097fc;fill-opacity:1;fill-rule:nonzero;stroke:none"
             id="path167" /></g><g
           id="g169"
           transform="translate(1257.98,545.7848)"><path
             d="m 0,0 c -0.585,-0.878 -1.562,-1.854 -2.733,-2.927 -1.171,-1.074 -2.244,-2.05 -3.415,-2.733 -1.074,-0.781 -2.147,-1.366 -3.221,-1.952 -1.073,-0.585 -2.537,-1.074 -4.294,-1.659 -6.246,-2.049 -11.32,-2.245 -15.322,-0.683 -4.001,1.659 -7.709,5.368 -11.125,11.125 -0.488,0.879 -1.074,1.854 -1.659,2.83 -0.878,1.66 -1.854,3.221 -2.83,4.685 -1.855,2.732 -3.513,4.001 -4.977,4.001 -1.464,0 -3.123,-1.366 -5.173,-4.001 -2.537,-3.318 -4.489,-6.929 -6.05,-10.833 l -1.757,-3.806 c -0.293,-0.488 -0.488,-1.073 -0.78,-1.561 -0.586,-1.659 -1.464,-3.123 -2.538,-4.392 -1.073,-1.268 -2.732,-1.757 -4.977,-1.561 -2.44,0.39 -4.099,1.464 -4.879,3.123 -0.781,1.658 -1.27,3.513 -1.464,5.562 -0.098,0.488 -0.196,0.976 -0.293,1.464 -0.488,3.221 -0.976,6.343 -1.367,9.564 -0.195,2.245 -0.585,4.587 -0.878,6.929 v 0.195 c -0.39,2.147 -0.683,4.099 -0.781,5.66 0,0.293 0.098,0.683 0.391,1.366 0.195,0.586 0.585,1.074 1.073,1.562 0.586,0.586 1.172,0.781 1.855,0.878 1.756,-0.097 2.927,-0.78 3.415,-2.342 0.586,-1.464 0.879,-3.415 1.074,-5.758 0.097,-0.78 0.195,-1.658 0.292,-2.537 0.098,-0.781 0.196,-1.757 0.293,-2.83 0.098,-2.05 0.293,-4.001 0.683,-5.758 0.293,-1.757 0.976,-2.635 1.952,-2.537 0.683,0 1.464,0.488 2.245,1.659 0.781,1.171 1.659,2.439 2.44,4.001 0.78,1.366 1.561,2.537 2.244,3.611 7.807,10.051 15.615,10.149 23.422,0.195 1.952,-2.635 3.806,-5.465 5.367,-8.393 0.586,-0.976 1.074,-1.952 1.66,-2.927 3.61,-5.759 8.685,-8.1 15.224,-6.929 3.415,0.683 6.245,1.659 8.588,3.123 2.244,1.366 4.098,2.732 5.562,3.903 1.464,1.269 2.538,1.952 3.221,1.952 C 0.878,1.269 0.683,0.781 0,0"
             style="fill:#0097fc;fill-opacity:1;fill-rule:nonzero;stroke:none"
             id="path171" /></g><g
           id="g173"
           transform="translate(362.7622,619.2697)"><path
             d="M 0,0 V 47.292 L -80.977,93.565 V 46.272 Z"
             style="fill:#00eafd;fill-opacity:1;fill-rule:nonzero;stroke:none"
             id="path175" /></g><g
           id="g177"
           transform="translate(200.8088,572.5153)"><path
             d="m 0,0 v -47.292 l 80.977,-46.273 v 47.293 z"
             style="fill:#00cbfe;fill-opacity:1;fill-rule:nonzero;stroke:none"
             id="path179" /></g><g
           id="g181"
           transform="translate(362.7622,571.1061)"><path
             d="m 0,0 v -45.756 l -40.826,23.835 -120.583,70.391 -0.544,0.319 V 94.55 L -121.798,71.105 -1.215,0.713 Z"
             style="fill:#0097fc;fill-opacity:1;fill-rule:nonzero;stroke:none"
             id="path183" /></g><g
           id="g185"
           transform="translate(281.7854,712.8346)"><path
             d="m 0,0 v -47.294 l -40.821,-23.329 -39.611,-22.635 -0.545,0.318 v 46.668 z"
             style="fill:#00cbfe;fill-opacity:1;fill-rule:nonzero;stroke:none"
             id="path187" /></g><g
           id="g189"
           transform="translate(362.7622,571.1061)"><path
             d="m 0,0 v -45.882 l -80.977,-46.272 v 47.289 l 40.151,22.944 39.611,22.634 z"
             style="fill:#00eafd;fill-opacity:1;fill-rule:nonzero;stroke:none"
             id="path191" /></g></g></g></g></svg>
