<svg id="Layer_1" data-name="Layer 1" xmlns="http://www.w3.org/2000/svg" viewBox="0 0 1459.48 1193.69"><defs><style>.cls-1{fill:#666;}.cls-2{fill:#4d4d4d;}.cls-3{fill:gray;}</style></defs><path class="cls-1" d="M395.86,722.52q-9.66,0-14.35-3T376.81,706V608.5q0-10.49,4.7-13.66t14.35-3.18h48.86q9.66,0,14.5,3.18t4.83,13.66v38.38l-30.37,8V620.65c0-2.39-.41-3.95-1.24-4.69s-2.35-1.11-4.56-1.11h-13c-2.21,0-3.73.37-4.55,1.11s-1.25,2.3-1.25,4.69v70.67q0,3.31,1.52,4.56a7.13,7.13,0,0,0,4.56,1.24h47.2v25.4Z"/><path class="cls-1" d="M500.12,722.52a75,75,0,0,1-12.28-.83,14.86,14.86,0,0,1-7.6-3.31,12.78,12.78,0,0,1-3.72-7.18,61.74,61.74,0,0,1-1-12.15V615.13a61.74,61.74,0,0,1,1-12.15,12.75,12.75,0,0,1,3.72-7.17,14.87,14.87,0,0,1,7.6-3.32,75,75,0,0,1,12.28-.83h42.79a77.7,77.7,0,0,1,12.42.83,15,15,0,0,1,7.73,3.32,13.53,13.53,0,0,1,3.87,7.17,55.08,55.08,0,0,1,1.1,12.15v83.92a58.72,58.72,0,0,1-1,11.74,14.58,14.58,0,0,1-3.46,7.17,13.09,13.09,0,0,1-7,3.59,57.71,57.71,0,0,1-11.73,1ZM517,698.77h9.39c4,0,6.53-.45,7.45-1.37s1.38-3.41,1.38-7.46V623.69q0-6.08-1.38-7.45c-.92-.93-3.41-1.39-7.45-1.39H517c-4.05,0-6.53.46-7.46,1.39s-1.37,3.4-1.37,7.45v66.25c0,4,.45,6.54,1.37,7.46S512.91,698.77,517,698.77Z"/><path class="cls-1" d="M622.88,722.52a77.17,77.17,0,0,1-12.56-.83,14.83,14.83,0,0,1-7.59-3.31A12.73,12.73,0,0,1,599,711.2a61.74,61.74,0,0,1-1-12.15V615.41h-18.5l51.9-67.64v43.89h24v23.75h-24v73.7q0,6.36,1.39,7.73c.91.93,3.49,1.38,7.72,1.38h14.91v24.3Z"/><path class="cls-1" d="M710.3,722.52a77.17,77.17,0,0,1-12.56-.83,14.83,14.83,0,0,1-7.59-3.31,12.79,12.79,0,0,1-3.73-7.18,61.74,61.74,0,0,1-1-12.15V615.41H667l51.9-67.64v43.89h24v23.75h-24v73.7c0,4.24.45,6.82,1.38,7.73s3.49,1.38,7.73,1.38h14.91v24.3Z"/><path class="cls-2" d="M904,673.91c0,.1-.1.2-.1.29-1.76,2-3.51,4.2-5.07,6.35l-.39.39L893,687.87c-3.42,4.29-7.22,8.68-11.32,13.37-8.59,9.66-16.79,18-24.5,25.27-4.68,4.39-9.07,8.2-13.37,11.62a140.63,140.63,0,0,1-14.63,10.44,62.84,62.84,0,0,1-17.08,7.51c-1.37.3-2.74.49-4,.69l-1.08.09c-.68,0-1.36.1-2,.1h-1.27c-.48,0-1.07-.1-1.65-.1a28.49,28.49,0,0,1-10-2.73,29.65,29.65,0,0,1-8.2-6.24,39.89,39.89,0,0,1-5.66-8.1,70.43,70.43,0,0,1-6.34-17.47c-2.44-10-3.61-21.86-3.71-35.62-.1-21.67,2.54-45.09,7.71-70.17a319.07,319.07,0,0,1,21.76-67,203.38,203.38,0,0,1,17.28-31.13,108.47,108.47,0,0,1,11.32-14.05,74.76,74.76,0,0,1,6.93-6.25,42.19,42.19,0,0,1,8.19-5,30.54,30.54,0,0,1,9.76-2.54,27.62,27.62,0,0,1,18.94,6,36.72,36.72,0,0,1,6.73,7.12l1.37,2.05,1.36,2.34a2.68,2.68,0,0,0,.39.69l.78,1.85a5.86,5.86,0,0,1,.69,1.37,61.71,61.71,0,0,1,2.92,8.88,79.64,79.64,0,0,1,2.05,18.05,120.62,120.62,0,0,1-1.07,18c-.88,6.05-1.95,11.91-3.32,17.47-1.07,4.59-2.34,9.07-3.61,13.47-.29,1.17-.68,2.34-1,3.51l-2.54,8.39-1.37,4.2a20.56,20.56,0,0,0-1.07,3.9,4.62,4.62,0,0,1-1.76,3,4.7,4.7,0,0,1-3.41,1c-2.35-.29-3.22-1.56-2.44-3.8a6.27,6.27,0,0,0,.29-.69,5.62,5.62,0,0,0,.49-.78A2.78,2.78,0,0,1,866,606a1.19,1.19,0,0,1,.19-.29c.3-.49,1.66-3.71,4-9.67a183,183,0,0,0,7-22.93,123.74,123.74,0,0,0,3.42-29.28A64.47,64.47,0,0,0,874.35,515l-1.27-2.73c-.1-.1-.1-.19-.19-.39a.1.1,0,0,1-.1-.1l-1.17-2.05-1.17-1.56a25.14,25.14,0,0,0-5.18-5.46,20.18,20.18,0,0,0-6.44-3.32,17.78,17.78,0,0,0-7.12-.88,21.38,21.38,0,0,0-6.93,1.95,34.29,34.29,0,0,0-6.64,4.1,67,67,0,0,0-5.95,5.47,97.58,97.58,0,0,0-10.25,13.17,196.58,196.58,0,0,0-16.1,30,320,320,0,0,0-20.49,65.29q-3.37,16.69-5.27,34A341.45,341.45,0,0,0,778,686.7c0,5.95.19,11.61.68,17a125,125,0,0,0,2.34,16.49,61.77,61.77,0,0,0,5.37,15.22c2.64,5.08,5.86,8.59,9.76,10.64a18.76,18.76,0,0,0,6.64,2h1.07a2.1,2.1,0,0,0,.78.1h.49c.39,0,.78-.1,1.27-.1.29,0,.58-.09.88-.09a22.67,22.67,0,0,0,2.73-.4l.1-.09c13.85-3.71,27.52-11.32,41-23a290.44,290.44,0,0,0,33.77-33.87c9.08-10.93,14.05-17.08,14.93-18.64a7.61,7.61,0,0,1,.88-1.07,7.5,7.5,0,0,1,1.46-1.08,1.55,1.55,0,0,1,1.47.1C905.09,671,905.19,672.35,904,673.91Z"/><path class="cls-2" d="M944.62,674c-.39.68-1.57,1.27-3.52,1.85s-3.9,1.08-6.05,1.56-3.9.69-5.17.88a50.67,50.67,0,0,1-3.51,10.15,45.94,45.94,0,0,1-7.91,12.1c-2.93,3-5.76,4.49-8.29,4.49a6,6,0,0,1-1.27-.09c-3-.59-5.47-3.42-7.52-8.4a39.44,39.44,0,0,1-2.73-12.49c-.19-3.51-.39-6.54-.39-9.17l-.29-.2a15.09,15.09,0,0,1-3.13-3.61c-1.46-2.93-1.07-6.44,1.18-10.64a31.33,31.33,0,0,1,8.88-10.73c6.63-5,12.68-5.66,18.05-2.25a17,17,0,0,1,6.83,10.06,41.41,41.41,0,0,1,.39,16.59c5.08-.49,8.49-1,10.35-1.37a20.13,20.13,0,0,1,2.83-.29,1.33,1.33,0,0,1,1.27.68A1.47,1.47,0,0,1,944.62,674ZM915,673.72a43.31,43.31,0,0,0,9.95.78,48.45,48.45,0,0,0,.88-11.23c-.19-4.39-1.27-7.51-3.22-9.46-2.93-2.54-6.83-2.64-11.42-.3a19.17,19.17,0,0,0-4.29,3.13c-2.73,2.93-4.3,5.07-4.69,6.34a15.37,15.37,0,0,0-1.27,3.22,23.54,23.54,0,0,1,1.47-3.41c1.85-2.93,4-4.4,6.64-4.4a4.76,4.76,0,0,1,4.09,2.25l.3.49-.49.09-1.17.3a3.73,3.73,0,0,0-1.86.58,5.6,5.6,0,0,0-1.75,2.54,39.41,39.41,0,0,0-2,6.34C908,672.06,911,672.94,915,673.72Zm-9.66,8.58a52.19,52.19,0,0,0,.68,7.52,29.42,29.42,0,0,0,1.76,5.66q1.6,3.22,3.22,3.51c1.07.2,2.34-.39,3.8-1.75,4.3-4.49,7.22-10.45,8.88-17.86a44,44,0,0,1-9.07.39,27.6,27.6,0,0,1-9.08-1.66A17.77,17.77,0,0,0,905.29,682.3Z"/><path class="cls-2" d="M975.26,719.19l-.59,2.64a9.27,9.27,0,0,1-.39,1.66,4.11,4.11,0,0,1-.19,1c-.39,1.66-.88,3.42-1.37,5.18a87.59,87.59,0,0,1-3.8,10,69,69,0,0,1-5.47,9.27,11.6,11.6,0,0,1-1.76,2,6,6,0,0,1-2.53,1.46,5.41,5.41,0,0,1-2.83.1,6.28,6.28,0,0,1-2.64-1.07,8.16,8.16,0,0,1-3.22-4.59c-.19-.88-.39-1.76-.49-2.63l-.39-2.64c-.49-3.51-1-7-1.27-10.64s-.39-7-.48-10.63-.1-7.13,0-10.64c0-7.12.39-14.25.87-21.28.3-3.61.59-7.12,1.08-10.63l.58-5.27a9.66,9.66,0,0,0,.2-1.56c0-.39.1-.78.1-1.08l.19-1.36.1-.69v-.19a4.08,4.08,0,0,0,.1-.49l1.75-13.17.59-4.69c.39-2.93.78-5.76,1.17-8.59.78-4.39,1.66-8.78,2.83-13.17l3.32-13v.1A67.17,67.17,0,0,1,964.23,604a25.76,25.76,0,0,1,2.64-4.88c.09,0,.09-.1.09-.1a11.31,11.31,0,0,1,1-1,3.5,3.5,0,0,1,1.27-.78,4.67,4.67,0,0,1,1.66-.29,4.2,4.2,0,0,1,1.46.49,5.43,5.43,0,0,1,2.34,3.51,7.14,7.14,0,0,1,.2,2v2a42.37,42.37,0,0,1-1.56,7.81c-.1.39-.2.88-.3,1.27a17.38,17.38,0,0,1-.68,2.44l-1.07,3.8c-.29.78-.49,1.66-.78,2.44a5.61,5.61,0,0,0-.39,1.27c-.2.39-.3.88-.49,1.27a25.53,25.53,0,0,1-.78,2.44l-5.37,14.74c-.29.88-.58,1.66-.88,2.53-.58,1.66-1.17,3.22-1.75,4.79L958,657l-.59,6.15v1.07c-.2,2.44-.49,4.88-.78,7.32l-.29,2.34-.59,5a10.34,10.34,0,0,0-.1,1.76c-.09.09,0,.09,0,.19l.1.1H956l.39-.2,3.42-1.07,3.81-1.66a1.34,1.34,0,0,0,.58-.2c.49-.19.88-.39,1.27-.58l1.76-.88a80.58,80.58,0,0,0,7-4.1,34.05,34.05,0,0,0,6.44-4.78,24.39,24.39,0,0,0,2.83-2.83,17.36,17.36,0,0,0,1.76-2.15,8.25,8.25,0,0,1,.59-1l1.17-8.49.58-4.3c.2-1.46.49-2.83.78-4.29.59-2.83,1.27-5.66,2-8.39l2.14-8.49v.09a63.34,63.34,0,0,1,2.74-8.29,24.37,24.37,0,0,1,2.14-3.81,5.73,5.73,0,0,1,1.86-1.46,4.78,4.78,0,0,1,1.17-.2,4.35,4.35,0,0,1,1.17.39,4.13,4.13,0,0,1,1.85,2.74,11,11,0,0,1,.1,3.12,30.82,30.82,0,0,1-1.17,6.05c-.1.39-.2.68-.29,1.07a15,15,0,0,1-.49,2l-.88,2.93c-.59,2-1.27,3.91-1.85,5.76l-4.2,11.52c-1.37,3.7-2.73,7.41-4.2,11.12,0,.1-.09.2-.09.29-.2,1.47-.39,2.93-.49,4.49s-.2,2.93-.29,4.49c-.2,1.27-.4,2.54-.49,3.81a1.19,1.19,0,0,0-.1.58c-.2,1.37-.39,2.74-.49,4.1a18,18,0,0,0,3.22-.58l3.52-.88c2.34-.78,4.68-1.46,6.92-2.25l6.93-2.34,1.08-.29a42.91,42.91,0,0,1,6-1.66c.29,0,.58-.1,1-.1.2,0,.3.1.49.1s.1.1.2.1a.36.36,0,0,1,.09.19.37.37,0,0,1,.1.3c0,.09-.1.09-.1.19l-.58.59h-.2a3.11,3.11,0,0,1-.78.48c-1.17.59-2.24,1.08-3.32,1.57-2.34.87-4.58,1.85-6.83,2.73l-6.83,2.63c-.29.1-.68.3-1,.39a58.79,58.79,0,0,0-5.66,2.54l-.3.2v.09c.1,0,.1,0,.2.1a.28.28,0,0,1,.19.1.37.37,0,0,1,.3.1l.39.29,1.75,1.17,1.66,1.27c.29.29.69.58,1,.88l.49.49a20.68,20.68,0,0,1,4.68,6.92,22.06,22.06,0,0,1,1.37,8.2,47.73,47.73,0,0,1-.78,8.3,60.6,60.6,0,0,1-5.08,15.9,44.67,44.67,0,0,1-4.29,7.13,7.42,7.42,0,0,1-1.47,1.56,5,5,0,0,1-2,1,6,6,0,0,1-2.24-.1,7.44,7.44,0,0,1-2-1,7.34,7.34,0,0,1-2.25-3.71c-.09-.68-.19-1.26-.29-1.95a.35.35,0,0,1-.1-.19l-.29-2c-.39-2.73-.68-5.47-.88-8.2s-.29-5.56-.29-8.29-.1-5.57-.1-8.3c.1-5.56.29-11.13.78-16.59.2-2.83.49-5.56.78-8.3.1-1.36.3-2.73.49-4.09,0-.4.1-.79.1-1.27a1.87,1.87,0,0,0,.1-.78l.09-1.08a.3.3,0,0,0,.1-.19,2.07,2.07,0,0,1,.1-.78l.29-2.44a41.07,41.07,0,0,1-4,4.19c-1.85,1.66-3.71,3.13-5.66,4.59s-4,2.63-6,3.9c-1.66,1-3.42,1.86-5.17,2.74a3.87,3.87,0,0,0-.69.29l-.48.29-3,1.27a.3.3,0,0,1-.19.1c0,.1,0,.1.09.1a11.74,11.74,0,0,0,1.08.58h.29c0,.1,0,.1.1.1l.29.19.58.39,1.08.78a8.57,8.57,0,0,1,1.75,1.27,1.38,1.38,0,0,1,.4.3l1.07.87c.19.2.49.4.68.59l.29.29A25.26,25.26,0,0,1,974,698a27.38,27.38,0,0,1,2.15,10.54A48.93,48.93,0,0,1,975.26,719.19Zm-14.93,25.67c.78-1.07,1.56-2.15,2.34-3.32a51.81,51.81,0,0,0,3.51-7.51,74.41,74.41,0,0,0,4.39-16,58.2,58.2,0,0,0,.79-8.2,28.5,28.5,0,0,0-.69-8.19,20.63,20.63,0,0,0-3.51-7.42,18.14,18.14,0,0,0-6.25-5.27v-.1a21.11,21.11,0,0,0-3.9-1.27,1.69,1.69,0,0,0-1.56.78,4.74,4.74,0,0,0-.59,1.86,15.47,15.47,0,0,0-.29,3,4,4,0,0,1-.1,1.08c0,.58-.1,1.07-.1,1.66-.09.88-.09,1.75-.19,2.53-.29,5.66-.49,11.23-.49,16.89s.2,11.22.68,16.88c.2,2.73.49,5.56.88,8.3,0,.48.1.87.1,1.36.1,1,.29,1.86.39,2.83.2.69.39,1.27.59,1.86.19.29.29.48.48.58a.31.31,0,0,0,.2.1h.29A9.18,9.18,0,0,0,960.33,744.86ZM970.18,603l-.19.3c-.78,2.24-1.56,4.39-2.25,6.63-.29,1.27-.68,2.44-1.07,3.71-1.07,3.61-1.95,7.22-2.73,10.83s-1.47,7.22-2.15,10.84v.19l-.78,4.2c1.76-5,3.32-10,4.88-14.93a108.6,108.6,0,0,0,2.93-11l.58-2.73c0-.1.1-.3.1-.4a17.88,17.88,0,0,0,.39-2.43,15.89,15.89,0,0,0,.29-5.27Zm22.45,82.95h.1a10,10,0,0,0-3.12-1,.93.93,0,0,0-1.08.49,3.32,3.32,0,0,0-.49,1.46,20.5,20.5,0,0,0-.19,2.34,2.68,2.68,0,0,0-.1.88c0,.49-.1.88-.1,1.37s-.09,1.27-.19,1.95q-.3,6.59-.29,13.17c0,4.4.19,8.79.48,13.18.2,2.15.39,4.39.69,6.54.09.39.09.68.19,1.07a7.87,7.87,0,0,0,.29,2.15,6.92,6.92,0,0,0,.39,1.46c.1.2.2.39.4.39,0,.1,0,.1.09.1h.1a7,7,0,0,0,2.34-1.85A15.17,15.17,0,0,0,993.9,727a41,41,0,0,0,2.83-5.85,60.65,60.65,0,0,0,3.41-12.5,46.77,46.77,0,0,0,.69-6.44,23.87,23.87,0,0,0-.59-6.44A14.94,14.94,0,0,0,992.63,685.91Zm6.54-60.4a23.9,23.9,0,0,0,.78-6.84l-.1.2c-.58,1.46-1.07,3-1.56,4.68-.29,1.08-.68,2.25-1.07,3.32-.78,2.83-1.47,5.66-2.05,8.49s-1.08,5.47-1.56,8.2a.87.87,0,0,0-.1.49l-.2,1.07.39-1.17c.3-1,.69-2,1-3,.68-1.76,1.27-3.62,1.85-5.37l1.18-4.3.58-2.14c0-.1.1-.3.1-.39.19-.59.29-1.17.49-1.76Z"/><path class="cls-2" d="M1112.76,678.6a1.54,1.54,0,0,1,.4.68v.29c0,.1-.1.2-.1.29v.1l-.1.1a40.43,40.43,0,0,1-9.47,6.64,21.57,21.57,0,0,1-5.56,1.75,13.15,13.15,0,0,1-5.85-.19,10.66,10.66,0,0,1-5.18-2.93,15,15,0,0,1-3.41-4.78,26.5,26.5,0,0,0-2.74-5,8.13,8.13,0,0,0-4.19-3.32,6.81,6.81,0,0,0-5,1.47,19,19,0,0,0-4.1,3.8,51.92,51.92,0,0,0-5,7.13L1061,687c-.58.78-1.07,1.56-1.66,2.34a14.25,14.25,0,0,1-2,2.34,9,9,0,0,1-2.44,1.76,5.72,5.72,0,0,1-3.12.58,6.51,6.51,0,0,1-2.93-1.26,9.09,9.09,0,0,1-2-2.35,23.39,23.39,0,0,1-2.15-5.46c-.29-1.17-.49-2.25-.78-3.32a19.48,19.48,0,0,0-.49-2.34l-.39-1.37-.29-1.46c-.1-.49-.2-.88-.29-1.27s-.3-.59-.59-.59a1.72,1.72,0,0,0-2,.49,13.15,13.15,0,0,0-1.56,2.25l-3,4.88c-.58,1-1.17,1.85-1.66,2.83-1.46,2.34-2.92,4.68-4.29,7l-2.93,5a.79.79,0,0,1-.19.39c-.2.29-.3.59-.49.88a6,6,0,0,1-1.07,1.17,4.24,4.24,0,0,1-2.93,1.46,5.9,5.9,0,0,1-3.22-.58,5.81,5.81,0,0,1-2.25-2.34,6.27,6.27,0,0,1-.58-3.22V692l.09-11.52.3-11.52.19-5.75v-.69a17.56,17.56,0,0,1,.1-2.24,6.49,6.49,0,0,1,.49-1.66,2.08,2.08,0,0,1,.58-.78l.3-.29c.19-.1.29-.1.39-.2l.19-.1h.2a8.27,8.27,0,0,1,2.92.39,5.55,5.55,0,0,1,1.37.88,4.17,4.17,0,0,1,.88,1.37,9.28,9.28,0,0,1,.39,2.73v.1a12.46,12.46,0,0,1,0,2.73c-.1,2.05-.2,4.1-.39,6.15-.2,1.46-.29,3-.39,4.49,0,.49-.1,1-.1,1.36v1.27l-.19,2.74a30.16,30.16,0,0,0-.2,5.17v.88h.1a4.24,4.24,0,0,0,.39-.69.46.46,0,0,0,.19-.29l.69-1.17a13.18,13.18,0,0,0,1-1.46c.59-1,1.27-2,1.86-3,.88-1.56,1.85-3.12,2.83-4.59l3.22-4.29a13,13,0,0,1,4.19-3.71,8.89,8.89,0,0,1,2.74-.78,9.12,9.12,0,0,1,2.83.29,7.83,7.83,0,0,1,2.63,1,7.13,7.13,0,0,1,2.15,2,13.94,13.94,0,0,1,2,5.07c.1.69.29,1.27.39,1.86.1.19.1.49.2.78.09.58.29,1.17.39,1.75.09.3.09.59.19.88v.1a10.72,10.72,0,0,0,1.47,4.39,2.55,2.55,0,0,0,1.56-.88,4.9,4.9,0,0,0,1.17-1.85h.1a9.92,9.92,0,0,1,1.26-2.15l1.37-2a38.69,38.69,0,0,1,6.34-7.51,16.65,16.65,0,0,1,9.08-4,13.29,13.29,0,0,1,9.47,2.83,18.9,18.9,0,0,1,3.41,3.51,15.64,15.64,0,0,1,2.34,4.39l.3.59a16.7,16.7,0,0,0,1.85,3.71,6.92,6.92,0,0,0,1.76,1.56,5,5,0,0,0,2.15.68,10.28,10.28,0,0,0,4.58-.49,36.78,36.78,0,0,0,4.59-1.75c1-.49,2-1.08,3-1.56.49-.2.88-.4,1.27-.59l2.25-1.17a3.17,3.17,0,0,1,1.17-.49,1.4,1.4,0,0,1,.68-.1.89.89,0,0,1,.68.2Z"/><path class="cls-2" d="M1118,692.36a20.82,20.82,0,0,1-4.29.39,6.6,6.6,0,0,1-4.29-1.66,6.09,6.09,0,0,1-1.37-1.76,6.17,6.17,0,0,1-.78-2.24,7.71,7.71,0,0,1,1-4.49,18.56,18.56,0,0,1,2.63-3.42,49.24,49.24,0,0,1,6.25-5.85,39.67,39.67,0,0,1,15-7.91,43.34,43.34,0,0,1,17-1.07,16.17,16.17,0,0,1,4.29,1.17c.68.39,1.27.78,2,1.17a5.74,5.74,0,0,1,.78.78,1.78,1.78,0,0,1,.49.68,2.31,2.31,0,0,1,.2.78,2.59,2.59,0,0,1-.69,1.47,2,2,0,0,1-1.46.58,2.36,2.36,0,0,1-.88-.09c-.1,0-.19-.1-.29-.1l-1.08-.2-1-.29a1.83,1.83,0,0,1-.68-.1h-.3c-.29-.09-.49-.09-.78-.19a5.6,5.6,0,0,1-1.27-.2,33.88,33.88,0,0,0-8.29.1,27.88,27.88,0,0,0-7.91,2.05,34.42,34.42,0,0,0-7.12,4.1,36.25,36.25,0,0,0-5.86,5.76,10.68,10.68,0,0,0-1,1.36l-.3.3-.58.87-.29.39a.37.37,0,0,0-.1.3.62.62,0,0,0,.1.58.71.71,0,0,0,.48.2l.1.09c.1-.09.1-.09.2-.09h.48c.3,0,.49-.1.69-.1a.35.35,0,0,1,.29-.1,19.48,19.48,0,0,0,7-4c.58-.49,1.17-.88,1.66-1.37l.87-.58.88-.59c1-.78,2-1.56,2.83-2.34a1.19,1.19,0,0,0,.39-.29,29.21,29.21,0,0,1,3.42-2.64,23.85,23.85,0,0,1,3.81-2,4.76,4.76,0,0,1,2.34-.09,3,3,0,0,1,1.95,1.27,13.09,13.09,0,0,1,2,3.9V677a20.58,20.58,0,0,0,1.46,3.62,7.29,7.29,0,0,0,2.74,2.92,12.51,12.51,0,0,0,7.8,1.47,20.63,20.63,0,0,0,7.81-2.74,52.87,52.87,0,0,0,7-4.49c1.07-.78,2.24-1.65,3.32-2.53l1.66-1.27.78-.68c.09-.1.19-.1.29-.2s.39-.29.68-.49h0c.1-.1.2-.1.3-.19s.29-.1.48-.1a1.35,1.35,0,0,1,.88.1h.1a1.64,1.64,0,0,1,.49.39.89.89,0,0,1,.29.68,1.59,1.59,0,0,1-.1.68c-.1.1-.1.2-.19.2a.31.31,0,0,1-.1.19l-.1.1a6.16,6.16,0,0,1-.78.88l-.68.78-.1-.1a17,17,0,0,1-3.22,2.74c-1.17.87-2.34,1.66-3.51,2.44a78.3,78.3,0,0,1-7.42,4,45.64,45.64,0,0,1-7.91,3.12,20.42,20.42,0,0,1-8.49,1.27,8.89,8.89,0,0,1-4.09-1.37,18.23,18.23,0,0,1-3.42-2.73,1.27,1.27,0,0,1-.29-.39,12.78,12.78,0,0,1-1.08-1.17l-.68-.88c-.1-.1-.19-.1-.19-.2-.2-.19-.3-.39-.49-.48a1.89,1.89,0,0,0-1.47-.69,4,4,0,0,0-1.75.49c-.69.49-1.47,1.08-2.15,1.56a48,48,0,0,1-12.2,7.32A20.56,20.56,0,0,1,1118,692.36Z"/><path class="cls-2" d="M1258,674.79a18.43,18.43,0,0,1-2.73,2.93,21,21,0,0,1-3.42,2.73,23.89,23.89,0,0,1-7.51,3.61c-6.25,2.05-11.32,2.25-15.32.68s-7.71-5.36-11.13-11.12c-.49-.88-1.07-1.86-1.66-2.83a54.44,54.44,0,0,0-2.83-4.69c-1.85-2.73-3.51-4-5-4s-3.12,1.37-5.17,4a45.15,45.15,0,0,0-6,10.84l-1.76,3.8c-.29.49-.48,1.08-.78,1.56a14,14,0,0,1-2.53,4.4c-1.08,1.26-2.74,1.75-5,1.56-2.44-.39-4.1-1.47-4.88-3.13a16.5,16.5,0,0,1-1.46-5.56l-.3-1.46c-.49-3.22-1-6.35-1.36-9.57-.2-2.24-.59-4.58-.88-6.93v-.19a49.93,49.93,0,0,1-.78-5.66,3.59,3.59,0,0,1,.39-1.37,4,4,0,0,1,1.07-1.56,3,3,0,0,1,1.86-.88c1.75.1,2.92.78,3.41,2.35a20.47,20.47,0,0,1,1.07,5.75c.1.78.2,1.66.3,2.54s.19,1.76.29,2.83a34.85,34.85,0,0,0,.68,5.76c.3,1.76,1,2.63,2,2.54.68,0,1.46-.49,2.24-1.66a36,36,0,0,0,2.44-4c.78-1.37,1.56-2.54,2.24-3.62q11.71-15.08,23.43-.19a67.5,67.5,0,0,1,5.36,8.39c.59,1,1.08,2,1.66,2.93,3.61,5.76,8.69,8.1,15.23,6.93a25.4,25.4,0,0,0,8.58-3.12,54,54,0,0,0,5.57-3.91c1.46-1.27,2.53-2,3.22-2C1258.86,673.52,1258.66,674,1258,674.79Z"/><polygon class="cls-1" points="362.76 601.3 362.76 554.01 281.79 507.74 281.79 555.03 362.76 601.3"/><polygon class="cls-3" points="200.81 648.06 200.81 695.35 281.79 741.62 281.79 694.33 200.81 648.06"/><polygon class="cls-2" points="362.76 649.47 362.76 695.23 321.94 671.39 201.35 601 200.81 600.68 200.81 554.92 240.97 578.36 361.55 648.75 362.76 649.47"/><polygon class="cls-3" points="281.79 507.74 281.79 555.03 240.97 578.36 201.35 601 200.81 600.68 200.81 554.01 281.79 507.74"/><polygon class="cls-1" points="362.76 649.47 362.76 695.35 281.79 741.62 281.79 694.33 321.94 671.39 361.55 648.75 362.76 649.47"/></svg>