<svg id="Layer_1" data-name="Layer 1" xmlns="http://www.w3.org/2000/svg" viewBox="0 0 1459.48 1193.69"><defs><style>.cls-1{fill:#00eafd;}.cls-2{fill:#00cbfe;}.cls-3{fill:#0097fc;}</style></defs><polygon class="cls-1" points="774.92 753.37 866.34 753.37 955.78 596.85 864.37 596.85 774.92 753.37"/><polygon class="cls-2" points="684.55 440.32 593.14 440.32 503.7 596.85 595.11 596.85 684.55 440.32"/><polygon class="cls-3" points="681.83 753.37 593.38 753.37 639.46 674.46 775.52 441.38 776.13 440.32 864.59 440.32 819.27 517.94 683.21 751.02 681.83 753.37"/><polygon class="cls-2" points="955.78 596.85 864.36 596.85 819.27 517.94 775.52 441.38 776.13 440.32 866.34 440.32 955.78 596.85"/><polygon class="cls-1" points="681.83 753.37 593.14 753.37 503.7 596.85 595.11 596.85 639.46 674.46 683.21 751.02 681.83 753.37"/></svg>