<svg id="Layer_1" data-name="Layer 1" xmlns="http://www.w3.org/2000/svg" viewBox="0 0 1459.48 1193.69"><defs><style>.cls-1{fill:#4d4d4d;}.cls-2{fill:#fff;}.cls-3{fill:#b3b3b3;}.cls-4{fill:#e6e6e6;}</style></defs><rect class="cls-1" x="0.05" width="1479" height="1214"/><path class="cls-2" d="M395.86,695.64q-9.66,0-14.35-3t-4.7-13.53V581.62q0-10.49,4.7-13.66t14.35-3.18h48.86q9.66,0,14.5,3.18t4.83,13.66V620l-30.37,8V593.77c0-2.39-.41-4-1.24-4.69s-2.35-1.11-4.56-1.11h-13c-2.21,0-3.73.37-4.55,1.11s-1.25,2.3-1.25,4.69v70.67q0,3.31,1.52,4.55a7.07,7.07,0,0,0,4.56,1.25h47.2v25.4Z"/><path class="cls-2" d="M500.12,695.64a75,75,0,0,1-12.28-.83,14.87,14.87,0,0,1-7.6-3.32,12.72,12.72,0,0,1-3.72-7.17,61.74,61.74,0,0,1-1-12.15V588.25a61.74,61.74,0,0,1,1-12.15,12.82,12.82,0,0,1,3.72-7.18,14.86,14.86,0,0,1,7.6-3.31,75,75,0,0,1,12.28-.83h42.79a77.7,77.7,0,0,1,12.42.83,15,15,0,0,1,7.73,3.31,13.6,13.6,0,0,1,3.87,7.18,55.08,55.08,0,0,1,1.1,12.15v83.92a58.54,58.54,0,0,1-1,11.73,14.62,14.62,0,0,1-3.46,7.18,13.09,13.09,0,0,1-7,3.59,57.71,57.71,0,0,1-11.73,1ZM517,671.89h9.39c4,0,6.53-.45,7.45-1.38s1.38-3.4,1.38-7.45V596.8c0-4-.46-6.53-1.38-7.45s-3.41-1.38-7.45-1.38H517c-4.05,0-6.53.46-7.46,1.38s-1.37,3.41-1.37,7.45v66.26c0,4.05.45,6.53,1.37,7.45S512.91,671.89,517,671.89Z"/><path class="cls-2" d="M622.88,695.64a77.17,77.17,0,0,1-12.56-.83,14.83,14.83,0,0,1-7.59-3.32,12.67,12.67,0,0,1-3.73-7.17,61.74,61.74,0,0,1-1-12.15V588.53h-18.5l51.9-67.64v43.89h24v23.75h-24v73.7c0,4.24.46,6.81,1.39,7.73s3.49,1.38,7.72,1.38h14.91v24.3Z"/><path class="cls-2" d="M710.3,695.64a77.17,77.17,0,0,1-12.56-.83,14.83,14.83,0,0,1-7.59-3.32,12.73,12.73,0,0,1-3.73-7.17,61.74,61.74,0,0,1-1-12.15V588.53H667l51.9-67.64v43.89h24v23.75h-24v73.7c0,4.24.45,6.81,1.38,7.73s3.49,1.38,7.73,1.38h14.91v24.3Z"/><path class="cls-3" d="M904,647c0,.1-.1.19-.1.29-1.76,2-3.51,4.2-5.07,6.35l-.39.39L893,661c-3.42,4.3-7.22,8.69-11.32,13.37-8.59,9.67-16.79,18.06-24.5,25.28-4.68,4.39-9.07,8.2-13.37,11.61a139.34,139.34,0,0,1-14.63,10.45,62.84,62.84,0,0,1-17.08,7.51c-1.37.29-2.74.49-4,.68L807,730c-.68,0-1.36.1-2,.1h-1.27c-.48,0-1.07-.1-1.65-.1a28.49,28.49,0,0,1-10-2.73,29.49,29.49,0,0,1-8.2-6.25,39.34,39.34,0,0,1-5.66-8.1,70.28,70.28,0,0,1-6.34-17.47c-2.44-9.95-3.61-21.86-3.71-35.62-.1-21.66,2.54-45.08,7.71-70.16a318.88,318.88,0,0,1,21.76-67,202.91,202.91,0,0,1,17.28-31.13,108.47,108.47,0,0,1,11.32-14.05,74.76,74.76,0,0,1,6.93-6.25,41.78,41.78,0,0,1,8.19-5,30.78,30.78,0,0,1,9.76-2.53,27.49,27.49,0,0,1,18.94,6,36.44,36.44,0,0,1,6.73,7.12l1.37,2.05,1.36,2.34a2.68,2.68,0,0,0,.39.69l.78,1.85a5.86,5.86,0,0,1,.69,1.37A61.71,61.71,0,0,1,884.3,494a79.64,79.64,0,0,1,2.05,18,120.62,120.62,0,0,1-1.07,18c-.88,6.05-1.95,11.9-3.32,17.47-1.07,4.58-2.34,9.07-3.61,13.46-.29,1.18-.68,2.35-1,3.52l-2.54,8.39-1.37,4.2a20.56,20.56,0,0,0-1.07,3.9,4.64,4.64,0,0,1-1.76,3,4.7,4.7,0,0,1-3.41,1c-2.35-.29-3.22-1.56-2.44-3.8a7.23,7.23,0,0,0,.29-.69,6.3,6.3,0,0,0,.49-.78,2.54,2.54,0,0,1,.39-.58,1.46,1.46,0,0,1,.19-.3c.3-.48,1.66-3.71,4-9.66a183,183,0,0,0,7-22.93,123.74,123.74,0,0,0,3.42-29.28,64.44,64.44,0,0,0-6.25-28.79l-1.27-2.73c-.1-.1-.1-.2-.19-.39a.1.1,0,0,1-.1-.1l-1.17-2.05-1.17-1.56a25.42,25.42,0,0,0-5.18-5.47,20.15,20.15,0,0,0-6.44-3.31,17.6,17.6,0,0,0-7.12-.88,21.13,21.13,0,0,0-6.93,1.95,34.29,34.29,0,0,0-6.64,4.1,67,67,0,0,0-5.95,5.46,98.35,98.35,0,0,0-10.25,13.18,196.1,196.1,0,0,0-16.1,30,320,320,0,0,0-20.49,65.29q-3.37,16.68-5.27,34A341.26,341.26,0,0,0,778,659.81c0,6,.19,11.62.68,17a125.19,125.19,0,0,0,2.34,16.5,61.92,61.92,0,0,0,5.37,15.22c2.64,5.08,5.86,8.59,9.76,10.64a18.76,18.76,0,0,0,6.64,2h1.07a2.1,2.1,0,0,0,.78.1h.49c.39,0,.78-.1,1.27-.1.29,0,.58-.1.88-.1a20.86,20.86,0,0,0,2.73-.39l.1-.09c13.85-3.71,27.52-11.33,41-23a289.64,289.64,0,0,0,33.77-33.86c9.08-10.93,14.05-17.08,14.93-18.64a7.61,7.61,0,0,1,.88-1.07,7.5,7.5,0,0,1,1.46-1.08,1.55,1.55,0,0,1,1.47.1C905.09,644.1,905.19,645.47,904,647Z"/><path class="cls-3" d="M944.62,647.13c-.39.68-1.57,1.27-3.52,1.85s-3.9,1.07-6.05,1.56-3.9.69-5.17.88a50.88,50.88,0,0,1-3.51,10.15,45.94,45.94,0,0,1-7.91,12.1c-2.93,3-5.76,4.49-8.29,4.49a5.44,5.44,0,0,1-1.27-.1c-3-.58-5.47-3.41-7.52-8.39a39.44,39.44,0,0,1-2.73-12.49c-.19-3.51-.39-6.54-.39-9.17l-.29-.2a15.09,15.09,0,0,1-3.13-3.61c-1.46-2.93-1.07-6.44,1.18-10.64a31.24,31.24,0,0,1,8.88-10.73c6.63-5,12.68-5.66,18.05-2.25a17.05,17.05,0,0,1,6.83,10,41.41,41.41,0,0,1,.39,16.59,104.22,104.22,0,0,0,10.35-1.36,20.13,20.13,0,0,1,2.83-.29,1.33,1.33,0,0,1,1.27.68A1.47,1.47,0,0,1,944.62,647.13Zm-29.67-.3a42.21,42.21,0,0,0,9.95.78,48.36,48.36,0,0,0,.88-11.22c-.19-4.39-1.27-7.51-3.22-9.46-2.93-2.54-6.83-2.64-11.42-.3a19.17,19.17,0,0,0-4.29,3.13c-2.73,2.92-4.3,5.07-4.69,6.34a15.37,15.37,0,0,0-1.27,3.22,23.71,23.71,0,0,1,1.47-3.42c1.85-2.92,4-4.39,6.64-4.39a4.76,4.76,0,0,1,4.09,2.25l.3.48-.49.1-1.17.3a3.73,3.73,0,0,0-1.86.58,5.6,5.6,0,0,0-1.75,2.54,38.75,38.75,0,0,0-2,6.34A30.37,30.37,0,0,0,915,646.83Zm-9.66,8.59a52.19,52.19,0,0,0,.68,7.52,29.42,29.42,0,0,0,1.76,5.66q1.6,3.21,3.22,3.51t3.8-1.76c4.3-4.49,7.22-10.44,8.88-17.86a43.35,43.35,0,0,1-9.07.39,27.35,27.35,0,0,1-9.08-1.65A17.77,17.77,0,0,0,905.29,655.42Z"/><path class="cls-3" d="M975.26,692.31l-.59,2.64a9.27,9.27,0,0,1-.39,1.66,4.11,4.11,0,0,1-.19,1c-.39,1.66-.88,3.42-1.37,5.17a87,87,0,0,1-3.8,10,69,69,0,0,1-5.47,9.27,11.6,11.6,0,0,1-1.76,2,6,6,0,0,1-2.53,1.46,5.62,5.62,0,0,1-2.83.1,6.41,6.41,0,0,1-2.64-1.07,8.16,8.16,0,0,1-3.22-4.59c-.19-.88-.39-1.76-.49-2.64l-.39-2.63c-.49-3.51-1-7-1.27-10.64s-.39-7-.48-10.64-.1-7.12,0-10.63c0-7.13.39-14.25.87-21.28.3-3.61.59-7.12,1.08-10.63l.58-5.27a9.64,9.64,0,0,0,.2-1.57c0-.39.1-.78.1-1.07l.19-1.37.1-.68v-.19a4.55,4.55,0,0,0,.1-.49L952.81,627l.59-4.68c.39-2.93.78-5.76,1.17-8.59.78-4.39,1.66-8.78,2.83-13.17l3.32-13v.09a67.52,67.52,0,0,1,3.51-10.54,26.39,26.39,0,0,1,2.64-4.88.09.09,0,0,0,.09-.09,9.06,9.06,0,0,1,1-1,3.5,3.5,0,0,1,1.27-.78,4.67,4.67,0,0,1,1.66-.29,4.2,4.2,0,0,1,1.46.49,5.38,5.38,0,0,1,2.34,3.51,7.14,7.14,0,0,1,.2,2v2a42.54,42.54,0,0,1-1.56,7.81c-.1.39-.2.88-.3,1.27a17.77,17.77,0,0,1-.68,2.44l-1.07,3.8c-.29.78-.49,1.66-.78,2.44a5.61,5.61,0,0,0-.39,1.27c-.2.39-.3.88-.49,1.27a25.53,25.53,0,0,1-.78,2.44l-5.37,14.73c-.29.88-.58,1.66-.88,2.54-.58,1.66-1.17,3.22-1.75,4.78L958,630.15l-.59,6.14v1.08c-.2,2.44-.49,4.88-.78,7.32l-.29,2.34-.59,5a10.28,10.28,0,0,0-.1,1.75c-.09.1,0,.1,0,.2l.1.1H956l.39-.2,3.42-1.07,3.81-1.66a1.34,1.34,0,0,0,.58-.2c.49-.19.88-.39,1.27-.58l1.76-.88q3.66-1.9,7-4.1a34.49,34.49,0,0,0,6.44-4.78,25.2,25.2,0,0,0,2.83-2.83,18.13,18.13,0,0,0,1.76-2.15,8.25,8.25,0,0,1,.59-1l1.17-8.5.58-4.29c.2-1.46.49-2.83.78-4.29.59-2.83,1.27-5.66,2-8.4l2.14-8.49v.1a63.34,63.34,0,0,1,2.74-8.29,24.37,24.37,0,0,1,2.14-3.81,5.6,5.6,0,0,1,1.86-1.46,4.78,4.78,0,0,1,1.17-.2,4.35,4.35,0,0,1,1.17.39,4.11,4.11,0,0,1,1.85,2.73,11.07,11.07,0,0,1,.1,3.13,30.82,30.82,0,0,1-1.17,6c-.1.39-.2.68-.29,1.07a15.45,15.45,0,0,1-.49,2l-.88,2.93c-.59,2-1.27,3.9-1.85,5.76l-4.2,11.51c-1.37,3.71-2.73,7.42-4.2,11.13,0,.1-.09.19-.09.29-.2,1.47-.39,2.93-.49,4.49s-.2,2.93-.29,4.49c-.2,1.27-.4,2.54-.49,3.81a1.19,1.19,0,0,0-.1.58c-.2,1.37-.39,2.73-.49,4.1a18.94,18.94,0,0,0,3.22-.58l3.52-.88c2.34-.78,4.68-1.47,6.92-2.25l6.93-2.34c.39-.1.69-.2,1.08-.29a41.61,41.61,0,0,1,6-1.66c.29,0,.58-.1,1-.1.2,0,.3.1.49.1s.1.1.2.1a.32.32,0,0,1,.09.19.36.36,0,0,1,.1.29c0,.1-.1.1-.1.2l-.58.58h-.2a3.16,3.16,0,0,1-.78.49c-1.17.59-2.24,1.08-3.32,1.56-2.34.88-4.58,1.86-6.83,2.74l-6.83,2.63c-.29.1-.68.29-1,.39a56.43,56.43,0,0,0-5.66,2.54l-.3.19v.1c.1,0,.1,0,.2.1a.28.28,0,0,1,.19.1.39.39,0,0,1,.3.09l.39.3,1.75,1.17,1.66,1.27c.29.29.69.58,1,.88l.49.48a20.72,20.72,0,0,1,4.68,6.93,22.06,22.06,0,0,1,1.37,8.2,47.73,47.73,0,0,1-.78,8.3,60.6,60.6,0,0,1-5.08,15.9,44.67,44.67,0,0,1-4.29,7.13,7.42,7.42,0,0,1-1.47,1.56,4.87,4.87,0,0,1-2,1,5.84,5.84,0,0,1-2.24-.09,7.44,7.44,0,0,1-2-1,7.34,7.34,0,0,1-2.25-3.71c-.09-.68-.19-1.27-.29-1.95a.35.35,0,0,1-.1-.19l-.29-2q-.59-4.11-.88-8.2c-.19-2.83-.29-5.56-.29-8.3s-.1-5.56-.1-8.29c.1-5.56.29-11.13.78-16.59.2-2.83.49-5.57.78-8.3.1-1.36.3-2.73.49-4.1,0-.39.1-.78.1-1.27a1.83,1.83,0,0,0,.1-.78l.09-1.07a.3.3,0,0,0,.1-.19,2.15,2.15,0,0,1,.1-.79l.29-2.44a40.18,40.18,0,0,1-4,4.2c-1.85,1.66-3.71,3.12-5.66,4.59s-4,2.63-6,3.9c-1.66,1-3.42,1.86-5.17,2.73a4.7,4.7,0,0,0-.69.3l-.48.29-3,1.27a.3.3,0,0,1-.19.1c0,.09,0,.09.09.09a11.68,11.68,0,0,0,1.08.59h.29c0,.1,0,.1.1.1l.29.19.58.39,1.08.78a7.88,7.88,0,0,1,1.75,1.27,1.59,1.59,0,0,1,.4.29l1.07.88c.19.2.49.39.68.59l.29.29a25.31,25.31,0,0,1,6.25,8.78,27.46,27.46,0,0,1,2.15,10.54A49,49,0,0,1,975.26,692.31ZM960.33,718c.78-1.08,1.56-2.15,2.34-3.32a51.81,51.81,0,0,0,3.51-7.51,74.41,74.41,0,0,0,4.39-16,58.2,58.2,0,0,0,.79-8.2,28.6,28.6,0,0,0-.69-8.2,20.66,20.66,0,0,0-3.51-7.41,18,18,0,0,0-6.25-5.27V662a20.38,20.38,0,0,0-3.9-1.27,1.69,1.69,0,0,0-1.56.78,4.74,4.74,0,0,0-.59,1.86,15.47,15.47,0,0,0-.29,3,4,4,0,0,1-.1,1.08c0,.58-.1,1.07-.1,1.65-.09.88-.09,1.76-.19,2.54-.29,5.66-.49,11.22-.49,16.89s.2,11.22.68,16.88c.2,2.73.49,5.56.88,8.29,0,.49.1.88.1,1.37.1,1,.29,1.85.39,2.83.2.68.39,1.27.59,1.85.19.3.29.49.48.59a.31.31,0,0,0,.2.1h.29A9.18,9.18,0,0,0,960.33,718Zm9.85-141.9-.19.29c-.78,2.25-1.56,4.39-2.25,6.64-.29,1.27-.68,2.44-1.07,3.71-1.07,3.61-1.95,7.22-2.73,10.83s-1.47,7.22-2.15,10.83v.2l-.78,4.19c1.76-5,3.32-9.95,4.88-14.93a108.42,108.42,0,0,0,2.93-11l.58-2.74c0-.09.1-.29.1-.39a17.78,17.78,0,0,0,.39-2.44,15.86,15.86,0,0,0,.29-5.27ZM992.63,659h.1a9.45,9.45,0,0,0-3.12-1,.93.93,0,0,0-1.08.48A3.36,3.36,0,0,0,988,660a20.5,20.5,0,0,0-.19,2.34,2.65,2.65,0,0,0-.1.88c0,.49-.1.88-.1,1.37s-.09,1.26-.19,1.95q-.3,6.59-.29,13.17c0,4.39.19,8.79.48,13.18.2,2.14.39,4.39.69,6.54.09.39.09.68.19,1.07a7.87,7.87,0,0,0,.29,2.15,6.92,6.92,0,0,0,.39,1.46c.1.19.2.39.4.39,0,.1,0,.1.09.1h.1a7,7,0,0,0,2.34-1.86,15.09,15.09,0,0,0,1.76-2.63,41.13,41.13,0,0,0,2.83-5.86,60.39,60.39,0,0,0,3.41-12.49,46.93,46.93,0,0,0,.69-6.44,23.84,23.84,0,0,0-.59-6.44A14.94,14.94,0,0,0,992.63,659Zm6.54-60.41a23.79,23.79,0,0,0,.78-6.83l-.1.2c-.58,1.46-1.07,3-1.56,4.68-.29,1.08-.68,2.25-1.07,3.32-.78,2.83-1.47,5.66-2.05,8.49s-1.08,5.47-1.56,8.2a.85.85,0,0,0-.1.49l-.2,1.07.39-1.17c.3-1,.69-2,1-3,.68-1.75,1.27-3.61,1.85-5.36l1.18-4.3.58-2.15c0-.09.1-.29.1-.39.19-.58.29-1.17.49-1.75Z"/><path class="cls-3" d="M1112.76,651.71a1.58,1.58,0,0,1,.4.69v.29c0,.1-.1.19-.1.29v.1l-.1.1a40.1,40.1,0,0,1-9.47,6.63,21.59,21.59,0,0,1-5.56,1.76,13.3,13.3,0,0,1-5.85-.19,10.66,10.66,0,0,1-5.18-2.93,15,15,0,0,1-3.41-4.78,26.5,26.5,0,0,0-2.74-5,8.13,8.13,0,0,0-4.19-3.32,6.8,6.8,0,0,0-5,1.46,19.3,19.3,0,0,0-4.1,3.81,51.83,51.83,0,0,0-5,7.12l-1.47,2.35c-.58.78-1.07,1.56-1.66,2.34a14.25,14.25,0,0,1-2,2.34,9.21,9.21,0,0,1-2.44,1.76,5.72,5.72,0,0,1-3.12.58,6.42,6.42,0,0,1-2.93-1.27,8.88,8.88,0,0,1-2-2.34,23.39,23.39,0,0,1-2.15-5.46c-.29-1.17-.49-2.25-.78-3.32a19.48,19.48,0,0,0-.49-2.34l-.39-1.37-.29-1.46c-.1-.49-.2-.88-.29-1.27s-.3-.59-.59-.59a1.7,1.7,0,0,0-2,.49,13.05,13.05,0,0,0-1.56,2.24l-3,4.88c-.58,1-1.17,1.86-1.66,2.83-1.46,2.35-2.92,4.69-4.29,7l-2.93,5a.79.79,0,0,1-.19.39c-.2.29-.3.58-.49.88a6,6,0,0,1-1.07,1.17,4.28,4.28,0,0,1-2.93,1.46,6,6,0,0,1-3.22-.58,5.77,5.77,0,0,1-2.25-2.35,6.23,6.23,0,0,1-.58-3.22v-2.83l.09-11.51.3-11.52.19-5.76v-.68a17.56,17.56,0,0,1,.1-2.24,6.38,6.38,0,0,1,.49-1.66,2,2,0,0,1,.58-.78l.3-.3c.19-.09.29-.09.39-.19l.19-.1h.2a8,8,0,0,1,2.92.39,5.55,5.55,0,0,1,1.37.88,4.17,4.17,0,0,1,.88,1.37,9.28,9.28,0,0,1,.39,2.73v.1a12.46,12.46,0,0,1,0,2.73c-.1,2.05-.2,4.1-.39,6.15-.2,1.46-.29,3-.39,4.49,0,.48-.1,1-.1,1.36v1.27l-.19,2.73a30.32,30.32,0,0,0-.2,5.18v.87h.1a4.1,4.1,0,0,0,.39-.68c.1-.1.19-.19.19-.29l.69-1.17a12.4,12.4,0,0,0,1-1.47c.59-1,1.27-2.05,1.86-3,.88-1.56,1.85-3.12,2.83-4.59l3.22-4.29a12.8,12.8,0,0,1,4.19-3.71,8.89,8.89,0,0,1,2.74-.78,9.12,9.12,0,0,1,2.83.29,7.83,7.83,0,0,1,2.63,1,7.13,7.13,0,0,1,2.15,2,13.87,13.87,0,0,1,2,5.07c.1.68.29,1.27.39,1.86a7.84,7.84,0,0,1,.2.78c.09.58.29,1.17.39,1.75.09.3.09.59.19.88v.1a10.72,10.72,0,0,0,1.47,4.39,2.55,2.55,0,0,0,1.56-.88,5,5,0,0,0,1.17-1.85h.1a9.69,9.69,0,0,1,1.26-2.15l1.37-2.05a38.69,38.69,0,0,1,6.34-7.51,16.65,16.65,0,0,1,9.08-4,13.29,13.29,0,0,1,9.47,2.83,18.9,18.9,0,0,1,3.41,3.51,15.64,15.64,0,0,1,2.34,4.39l.3.59a16.63,16.63,0,0,0,1.85,3.7,6.78,6.78,0,0,0,1.76,1.57,5,5,0,0,0,2.15.68,10.43,10.43,0,0,0,4.58-.49,36.83,36.83,0,0,0,4.59-1.76c1-.48,2-1.07,3-1.56.49-.19.88-.39,1.27-.58l2.25-1.17a3.17,3.17,0,0,1,1.17-.49,1.4,1.4,0,0,1,.68-.1.89.89,0,0,1,.68.2Z"/><path class="cls-3" d="M1118,665.47a20.15,20.15,0,0,1-4.29.39,6.59,6.59,0,0,1-4.29-1.65,6.09,6.09,0,0,1-1.37-1.76,6.22,6.22,0,0,1-.78-2.25,7.73,7.73,0,0,1,1-4.49,18.48,18.48,0,0,1,2.63-3.41,50.06,50.06,0,0,1,6.25-5.86,39.79,39.79,0,0,1,15-7.9,43,43,0,0,1,17-1.07,16.17,16.17,0,0,1,4.29,1.17c.68.39,1.27.78,2,1.17a5.74,5.74,0,0,1,.78.78,1.7,1.7,0,0,1,.49.68,2.25,2.25,0,0,1,.2.78,2.59,2.59,0,0,1-.69,1.47,2,2,0,0,1-1.46.58,2.14,2.14,0,0,1-.88-.1c-.1,0-.19-.09-.29-.09l-1.08-.2-1-.29a1.83,1.83,0,0,1-.68-.1h-.3c-.29-.1-.49-.1-.78-.19a5.6,5.6,0,0,1-1.27-.2,33.88,33.88,0,0,0-8.29.1,27.55,27.55,0,0,0-7.91,2.05,34.42,34.42,0,0,0-7.12,4.1,36.6,36.6,0,0,0-5.86,5.75,11.52,11.52,0,0,0-1,1.37l-.3.29-.58.88-.29.39a.36.36,0,0,0-.1.29c-.1.2,0,.39.1.59a.71.71,0,0,0,.48.2l.1.09c.1-.09.1-.09.2-.09h.48c.3,0,.49-.1.69-.1a.35.35,0,0,1,.29-.1,19.63,19.63,0,0,0,7-4c.58-.49,1.17-.88,1.66-1.37l.87-.58.88-.59c1-.78,2-1.56,2.83-2.34a1.35,1.35,0,0,0,.39-.29,29.21,29.21,0,0,1,3.42-2.64,23.85,23.85,0,0,1,3.81-2,4.89,4.89,0,0,1,2.34-.1,3,3,0,0,1,1.95,1.27,13.26,13.26,0,0,1,2,3.91v.19a20.17,20.17,0,0,0,1.46,3.61,7.26,7.26,0,0,0,2.74,2.93,12.44,12.44,0,0,0,7.8,1.46,20.61,20.61,0,0,0,7.81-2.73,53.9,53.9,0,0,0,7-4.49c1.07-.78,2.24-1.66,3.32-2.53l1.66-1.27.78-.69c.09-.09.19-.09.29-.19s.39-.29.68-.49h0c.1-.1.2-.1.3-.19s.29-.1.48-.1a1.35,1.35,0,0,1,.88.1h.1a1.64,1.64,0,0,1,.49.39.89.89,0,0,1,.29.68,1.61,1.61,0,0,1-.1.68c-.1.1-.1.2-.19.2a.35.35,0,0,1-.1.19l-.1.1a6.16,6.16,0,0,1-.78.88l-.68.78-.1-.1a17.33,17.33,0,0,1-3.22,2.73c-1.17.88-2.34,1.66-3.51,2.44a76.09,76.09,0,0,1-7.42,4,45.68,45.68,0,0,1-7.91,3.13,20.58,20.58,0,0,1-8.49,1.27,8.89,8.89,0,0,1-4.09-1.37,18.23,18.23,0,0,1-3.42-2.73,1.27,1.27,0,0,1-.29-.39,12.78,12.78,0,0,1-1.08-1.17l-.68-.88c-.1-.1-.19-.1-.19-.2-.2-.19-.3-.39-.49-.49a1.92,1.92,0,0,0-1.47-.68,4,4,0,0,0-1.75.49c-.69.49-1.47,1.07-2.15,1.56a48,48,0,0,1-12.2,7.32A19.91,19.91,0,0,1,1118,665.47Z"/><path class="cls-3" d="M1258,647.91a18.43,18.43,0,0,1-2.73,2.93,21.51,21.51,0,0,1-3.42,2.73,29.08,29.08,0,0,1-3.22,1.95,28.48,28.48,0,0,1-4.29,1.66c-6.25,2.05-11.32,2.24-15.32.68s-7.71-5.37-11.13-11.12c-.49-.88-1.07-1.86-1.66-2.83a54.44,54.44,0,0,0-2.83-4.69c-1.85-2.73-3.51-4-5-4s-3.12,1.37-5.17,4a45.27,45.27,0,0,0-6,10.83l-1.76,3.81c-.29.49-.48,1.07-.78,1.56a13.93,13.93,0,0,1-2.53,4.39c-1.08,1.27-2.74,1.76-5,1.57-2.44-.4-4.1-1.47-4.88-3.13a16.56,16.56,0,0,1-1.46-5.56l-.3-1.46c-.49-3.22-1-6.35-1.36-9.57-.2-2.24-.59-4.59-.88-6.93v-.19a49.93,49.93,0,0,1-.78-5.66,3.5,3.5,0,0,1,.39-1.37,4,4,0,0,1,1.07-1.56,3,3,0,0,1,1.86-.88c1.75.1,2.92.78,3.41,2.34a20.62,20.62,0,0,1,1.07,5.76c.1.78.2,1.66.3,2.54s.19,1.76.29,2.83a34.85,34.85,0,0,0,.68,5.76c.3,1.75,1,2.63,2,2.53.68,0,1.46-.48,2.24-1.66a35.07,35.07,0,0,0,2.44-4c.78-1.36,1.56-2.53,2.24-3.61,7.81-10,15.62-10.15,23.43-.19a67.5,67.5,0,0,1,5.36,8.39c.59,1,1.08,2,1.66,2.93,3.61,5.76,8.69,8.1,15.23,6.93a25.4,25.4,0,0,0,8.58-3.13,52.52,52.52,0,0,0,5.57-3.9c1.46-1.27,2.53-2,3.22-2C1258.86,646.64,1258.66,647.13,1258,647.91Z"/><polygon class="cls-2" points="362.76 574.42 362.76 527.13 281.79 480.86 281.79 528.15 362.76 574.42"/><polygon class="cls-4" points="200.81 621.18 200.81 668.47 281.79 714.74 281.79 667.45 200.81 621.18"/><polygon class="cls-3" points="362.76 622.59 362.76 668.34 321.94 644.51 201.35 574.12 200.81 573.8 200.81 528.04 240.97 551.48 361.55 621.87 362.76 622.59"/><polygon class="cls-4" points="281.79 480.86 281.79 528.15 240.97 551.48 201.35 574.12 200.81 573.8 200.81 527.13 281.79 480.86"/><polygon class="cls-2" points="362.76 622.59 362.76 668.47 281.79 714.74 281.79 667.45 321.94 644.51 361.55 621.87 362.76 622.59"/></svg>