<svg id="Layer_1" data-name="Layer 1" xmlns="http://www.w3.org/2000/svg" viewBox="0 0 1459.48 1193.69"><defs><style>.cls-1{fill:#666;}.cls-2{fill:gray;}.cls-3{fill:#4d4d4d;}</style></defs><polygon class="cls-1" points="684.39 439.77 592.65 439.77 502.89 596.85 594.63 596.85 684.39 439.77"/><polygon class="cls-2" points="775.09 753.92 866.82 753.92 956.58 596.85 864.84 596.85 775.09 753.92"/><polygon class="cls-3" points="777.82 439.77 866.58 439.77 820.34 518.96 683.79 752.87 683.18 753.92 594.41 753.92 639.89 676.03 776.43 442.12 777.82 439.77"/><polygon class="cls-2" points="502.89 596.85 594.63 596.85 639.89 676.03 683.79 752.87 683.18 753.92 592.65 753.92 502.89 596.85"/><polygon class="cls-1" points="777.82 439.77 866.82 439.77 956.58 596.85 864.85 596.85 820.34 518.96 776.43 442.12 777.82 439.77"/></svg>