<svg id="Layer_1" data-name="Layer 1" xmlns="http://www.w3.org/2000/svg" viewBox="0 0 1459.48 1193.69"><defs><style>.cls-1{fill:#333;}</style></defs><path class="cls-1" d="M935.4,609.11,800.62,678.57l15.22,29.55,113-58.26c-23.39,88.1-103.67,153-199.12,153A206.75,206.75,0,0,1,699,800.58l93.89-399.9a206.46,206.46,0,0,1,136.3,144.26L815.94,485.63l-15.41,29.44,134.94,70.69,22.45,11.75Z"/><path class="cls-1" d="M760.5,393.12,666.61,793a206.37,206.37,0,0,1-136-143.12l113,58.24,15.24-29.55L524.09,609.12l-22.53-11.61L524,585.75,659,515.07l-15.42-29.44L530.32,544.94c23-88.65,103.56-154.12,199.43-154.12A205.25,205.25,0,0,1,760.5,393.12Z"/></svg>