<svg id="Layer_1" data-name="Layer 1" xmlns="http://www.w3.org/2000/svg" viewBox="0 0 1459.48 1193.69"><defs><style>.cls-1{fill:#333;}</style></defs><path class="cls-1" d="M908.23,613.17,842,647.28l7.48,14.51L905,633.18a101.31,101.31,0,0,1-112.89,74l46.1-196.37a101.41,101.41,0,0,1,66.94,70.84l-55.6-29.12L842,567l66.26,34.72,11,5.77Z"/><path class="cls-1" d="M822.34,507.11l-46.1,196.36a101.35,101.35,0,0,1-66.78-70.28l55.5,28.6,7.48-14.51-66.18-34.1-11.07-5.7,11-5.78L772.48,567l-7.57-14.45-55.59,29.12a101.29,101.29,0,0,1,113-74.55Z"/><path class="cls-1" d="M459,539.12q27.14,11.58,40.89,30.74t13.76,45.35q0,38.34-24.38,61.77t-64.61,23.43q-32.83,0-55-16.79t-30-47.72l30-14.8q6.07,25.23,20,38.23t35,13q24.86,0,40.22-14.33t15.37-37.28q0-18.6-10.72-32.36t-32.35-23.24L403.37,550.7q-27.72-11.58-41.28-29.79t-13.56-43.64q0-29.61,22-49T426.7,409q25.05,0,43.36,10.62t28.56,31.31L471.3,468.35q-9.3-16.12-20.88-24a45.44,45.44,0,0,0-26.18-7.88q-18.6,0-30.46,11.38t-11.86,29A38.51,38.51,0,0,0,391,502.5q9.11,10.81,28.27,19.17Z"/><path class="cls-1" d="M680.94,652.21v34.54a93.81,93.81,0,0,1-26.47,10.53,136.68,136.68,0,0,1-31.78,3.51q-40.23,0-64.8-25.52t-24.57-67.08q0-41.75,25.42-68.21t65.09-26.47a130.72,130.72,0,0,1,28.18,3,117.7,117.7,0,0,1,25.9,8.92v31.88a98.4,98.4,0,0,0-23.53-11.29,80.53,80.53,0,0,0-24.67-3.89q-29.22,0-46.87,18.31t-17.65,48.67q0,26.76,17.75,44.78t44.49,18a75.78,75.78,0,0,0,26.38-4.75Q666.71,662.46,680.94,652.21Z"/><path class="cls-1" d="M957.06,544.25H925.18V519.77h31.88v-70h30.36v70h31.88v24.48H987.42V693.39H957.06Z"/><path class="cls-1" d="M1057.63,544.25h-31.88V519.77h31.88v-70H1088v70h31.88v24.48H1088V693.39h-30.36Z"/><rect class="cls-1" x="492.74" y="740.99" width="32.91" height="25.48"/><path class="cls-1" d="M340,723v61.72h779.5V723Zm42.34,18v25.48h26.83v-8.68l10,2v4.83c0,3.86-.78,6.43-2.36,7.72s-4.36,1.93-8.35,1.93H383q-6,0-8.3-1.93c-1.54-1.29-2.32-3.86-2.32-7.72V743.12c0-3.87.78-6.44,2.32-7.73s4.31-1.93,8.3-1.93h25.48q7.62,0,9.46,3.19c.84,1.41,1.25,4.89,1.25,10.42l-10,1.45V741ZM535.6,764.64c0,3.86-.78,6.43-2.32,7.72s-4.31,1.93-8.3,1.93H493.42q-6,0-8.3-1.88t-2.32-7.77V743.12q0-5.89,2.32-7.78t8.3-1.88H525c4,0,6.75.63,8.3,1.88s2.32,3.85,2.32,7.78ZM644.37,740.8h-33.3v10.62H629V759H611.07v15.25H601V733.46h43.34Zm101.34,0h-33.3v10.62h18V759h-18v15.25h-10V733.46h43.34ZM859.6,774.29h-9.27V746.2l-18.24,23.17h-1.93l-18.43-22.49v27.41h-8V733.46h8l20,24.23,19.88-24.23h8Zm107.42,0-5.11-9h-27l-5.11,9h-9.94l24.22-40.83h9.56l24.61,40.83Zm120.07,0h-6.85l-34.56-27.51v27.51h-9.07V733.46h6.85l34.65,27.13V733.46h9Z"/><polygon class="cls-1" points="939.13 757.88 957.85 757.88 948.3 740.89 939.13 757.88"/></svg>